<?xml version="1.0" encoding="utf-8" standalone="no"?>
<!DOCTYPE svg PUBLIC "-//W3C//DTD SVG 1.1//EN"
  "http://www.w3.org/Graphics/SVG/1.1/DTD/svg11.dtd">
<svg height="324pt" version="1.1" viewBox="0 0 576 324" width="576pt" xmlns="http://www.w3.org/2000/svg" xmlns:xlink="http://www.w3.org/1999/xlink">
 <metadata>
  <rdf:RDF xmlns:cc="http://creativecommons.org/ns#" xmlns:dc="http://purl.org/dc/elements/1.1/" xmlns:rdf="http://www.w3.org/1999/02/22-rdf-syntax-ns#">
   <cc:Work>
    <dc:type rdf:resource="http://purl.org/dc/dcmitype/StillImage"/>
    <dc:date>2022-05-10T06:26:10.082187</dc:date>
    <dc:format>image/svg+xml</dc:format>
    <dc:creator>
     <cc:Agent>
      <dc:title>Matplotlib v3.4.3, https://matplotlib.org/</dc:title>
     </cc:Agent>
    </dc:creator>
   </cc:Work>
  </rdf:RDF>
 </metadata>
 <defs>
  <style type="text/css">*{stroke-linecap:butt;stroke-linejoin:round;}</style>
 </defs>
 <g id="figure_1">
  <g id="patch_1">
   <path d="M 0 324 
L 576 324 
L 576 0 
L 0 0 
z
" style="fill:#ffffff;"/>
  </g>
  <g id="axes_1">
   <g id="patch_2">
    <path d="M 72 288.36 
L 518.4 288.36 
L 518.4 38.88 
L 72 38.88 
z
" style="fill:#ffffff;"/>
   </g>
   <g id="matplotlib.axis_1">
    <g id="xtick_1">
     <g id="line2d_1">
      <defs>
       <path d="M 0 0 
L 0 3.5 
" id="m7ee6ea3f97" style="stroke:#000000;stroke-width:0.8;"/>
      </defs>
      <g>
       <use style="stroke:#000000;stroke-width:0.8;" x="72" xlink:href="#m7ee6ea3f97" y="288.36"/>
      </g>
     </g>
     <g id="text_1">
      <!-- 0 -->
      <g transform="translate(68.81875 302.958438)scale(0.1 -0.1)">
       <defs>
        <path d="M 2034 4250 
Q 1547 4250 1301 3770 
Q 1056 3291 1056 2328 
Q 1056 1369 1301 889 
Q 1547 409 2034 409 
Q 2525 409 2770 889 
Q 3016 1369 3016 2328 
Q 3016 3291 2770 3770 
Q 2525 4250 2034 4250 
z
M 2034 4750 
Q 2819 4750 3233 4129 
Q 3647 3509 3647 2328 
Q 3647 1150 3233 529 
Q 2819 -91 2034 -91 
Q 1250 -91 836 529 
Q 422 1150 422 2328 
Q 422 3509 836 4129 
Q 1250 4750 2034 4750 
z
" id="DejaVuSans-30" transform="scale(0.015625)"/>
       </defs>
       <use xlink:href="#DejaVuSans-30"/>
      </g>
     </g>
    </g>
    <g id="xtick_2">
     <g id="line2d_2">
      <g>
       <use style="stroke:#000000;stroke-width:0.8;" x="151.714286" xlink:href="#m7ee6ea3f97" y="288.36"/>
      </g>
     </g>
     <g id="text_2">
      <!-- 500 -->
      <g transform="translate(142.170536 302.958438)scale(0.1 -0.1)">
       <defs>
        <path d="M 691 4666 
L 3169 4666 
L 3169 4134 
L 1269 4134 
L 1269 2991 
Q 1406 3038 1543 3061 
Q 1681 3084 1819 3084 
Q 2600 3084 3056 2656 
Q 3513 2228 3513 1497 
Q 3513 744 3044 326 
Q 2575 -91 1722 -91 
Q 1428 -91 1123 -41 
Q 819 9 494 109 
L 494 744 
Q 775 591 1075 516 
Q 1375 441 1709 441 
Q 2250 441 2565 725 
Q 2881 1009 2881 1497 
Q 2881 1984 2565 2268 
Q 2250 2553 1709 2553 
Q 1456 2553 1204 2497 
Q 953 2441 691 2322 
L 691 4666 
z
" id="DejaVuSans-35" transform="scale(0.015625)"/>
       </defs>
       <use xlink:href="#DejaVuSans-35"/>
       <use x="63.623047" xlink:href="#DejaVuSans-30"/>
       <use x="127.246094" xlink:href="#DejaVuSans-30"/>
      </g>
     </g>
    </g>
    <g id="xtick_3">
     <g id="line2d_3">
      <g>
       <use style="stroke:#000000;stroke-width:0.8;" x="231.428571" xlink:href="#m7ee6ea3f97" y="288.36"/>
      </g>
     </g>
     <g id="text_3">
      <!-- 1000 -->
      <g transform="translate(218.703571 302.958438)scale(0.1 -0.1)">
       <defs>
        <path d="M 794 531 
L 1825 531 
L 1825 4091 
L 703 3866 
L 703 4441 
L 1819 4666 
L 2450 4666 
L 2450 531 
L 3481 531 
L 3481 0 
L 794 0 
L 794 531 
z
" id="DejaVuSans-31" transform="scale(0.015625)"/>
       </defs>
       <use xlink:href="#DejaVuSans-31"/>
       <use x="63.623047" xlink:href="#DejaVuSans-30"/>
       <use x="127.246094" xlink:href="#DejaVuSans-30"/>
       <use x="190.869141" xlink:href="#DejaVuSans-30"/>
      </g>
     </g>
    </g>
    <g id="xtick_4">
     <g id="line2d_4">
      <g>
       <use style="stroke:#000000;stroke-width:0.8;" x="311.142857" xlink:href="#m7ee6ea3f97" y="288.36"/>
      </g>
     </g>
     <g id="text_4">
      <!-- 1500 -->
      <g transform="translate(298.417857 302.958438)scale(0.1 -0.1)">
       <use xlink:href="#DejaVuSans-31"/>
       <use x="63.623047" xlink:href="#DejaVuSans-35"/>
       <use x="127.246094" xlink:href="#DejaVuSans-30"/>
       <use x="190.869141" xlink:href="#DejaVuSans-30"/>
      </g>
     </g>
    </g>
    <g id="xtick_5">
     <g id="line2d_5">
      <g>
       <use style="stroke:#000000;stroke-width:0.8;" x="390.857143" xlink:href="#m7ee6ea3f97" y="288.36"/>
      </g>
     </g>
     <g id="text_5">
      <!-- 2000 -->
      <g transform="translate(378.132143 302.958438)scale(0.1 -0.1)">
       <defs>
        <path d="M 1228 531 
L 3431 531 
L 3431 0 
L 469 0 
L 469 531 
Q 828 903 1448 1529 
Q 2069 2156 2228 2338 
Q 2531 2678 2651 2914 
Q 2772 3150 2772 3378 
Q 2772 3750 2511 3984 
Q 2250 4219 1831 4219 
Q 1534 4219 1204 4116 
Q 875 4013 500 3803 
L 500 4441 
Q 881 4594 1212 4672 
Q 1544 4750 1819 4750 
Q 2544 4750 2975 4387 
Q 3406 4025 3406 3419 
Q 3406 3131 3298 2873 
Q 3191 2616 2906 2266 
Q 2828 2175 2409 1742 
Q 1991 1309 1228 531 
z
" id="DejaVuSans-32" transform="scale(0.015625)"/>
       </defs>
       <use xlink:href="#DejaVuSans-32"/>
       <use x="63.623047" xlink:href="#DejaVuSans-30"/>
       <use x="127.246094" xlink:href="#DejaVuSans-30"/>
       <use x="190.869141" xlink:href="#DejaVuSans-30"/>
      </g>
     </g>
    </g>
    <g id="xtick_6">
     <g id="line2d_6">
      <g>
       <use style="stroke:#000000;stroke-width:0.8;" x="470.571429" xlink:href="#m7ee6ea3f97" y="288.36"/>
      </g>
     </g>
     <g id="text_6">
      <!-- 2500 -->
      <g transform="translate(457.846429 302.958438)scale(0.1 -0.1)">
       <use xlink:href="#DejaVuSans-32"/>
       <use x="63.623047" xlink:href="#DejaVuSans-35"/>
       <use x="127.246094" xlink:href="#DejaVuSans-30"/>
       <use x="190.869141" xlink:href="#DejaVuSans-30"/>
      </g>
     </g>
    </g>
    <g id="text_7">
     <!-- Frequency (Hz) -->
     <g transform="translate(257.495313 316.636563)scale(0.1 -0.1)">
      <defs>
       <path d="M 628 4666 
L 3309 4666 
L 3309 4134 
L 1259 4134 
L 1259 2759 
L 3109 2759 
L 3109 2228 
L 1259 2228 
L 1259 0 
L 628 0 
L 628 4666 
z
" id="DejaVuSans-46" transform="scale(0.015625)"/>
       <path d="M 2631 2963 
Q 2534 3019 2420 3045 
Q 2306 3072 2169 3072 
Q 1681 3072 1420 2755 
Q 1159 2438 1159 1844 
L 1159 0 
L 581 0 
L 581 3500 
L 1159 3500 
L 1159 2956 
Q 1341 3275 1631 3429 
Q 1922 3584 2338 3584 
Q 2397 3584 2469 3576 
Q 2541 3569 2628 3553 
L 2631 2963 
z
" id="DejaVuSans-72" transform="scale(0.015625)"/>
       <path d="M 3597 1894 
L 3597 1613 
L 953 1613 
Q 991 1019 1311 708 
Q 1631 397 2203 397 
Q 2534 397 2845 478 
Q 3156 559 3463 722 
L 3463 178 
Q 3153 47 2828 -22 
Q 2503 -91 2169 -91 
Q 1331 -91 842 396 
Q 353 884 353 1716 
Q 353 2575 817 3079 
Q 1281 3584 2069 3584 
Q 2775 3584 3186 3129 
Q 3597 2675 3597 1894 
z
M 3022 2063 
Q 3016 2534 2758 2815 
Q 2500 3097 2075 3097 
Q 1594 3097 1305 2825 
Q 1016 2553 972 2059 
L 3022 2063 
z
" id="DejaVuSans-65" transform="scale(0.015625)"/>
       <path d="M 947 1747 
Q 947 1113 1208 752 
Q 1469 391 1925 391 
Q 2381 391 2643 752 
Q 2906 1113 2906 1747 
Q 2906 2381 2643 2742 
Q 2381 3103 1925 3103 
Q 1469 3103 1208 2742 
Q 947 2381 947 1747 
z
M 2906 525 
Q 2725 213 2448 61 
Q 2172 -91 1784 -91 
Q 1150 -91 751 415 
Q 353 922 353 1747 
Q 353 2572 751 3078 
Q 1150 3584 1784 3584 
Q 2172 3584 2448 3432 
Q 2725 3281 2906 2969 
L 2906 3500 
L 3481 3500 
L 3481 -1331 
L 2906 -1331 
L 2906 525 
z
" id="DejaVuSans-71" transform="scale(0.015625)"/>
       <path d="M 544 1381 
L 544 3500 
L 1119 3500 
L 1119 1403 
Q 1119 906 1312 657 
Q 1506 409 1894 409 
Q 2359 409 2629 706 
Q 2900 1003 2900 1516 
L 2900 3500 
L 3475 3500 
L 3475 0 
L 2900 0 
L 2900 538 
Q 2691 219 2414 64 
Q 2138 -91 1772 -91 
Q 1169 -91 856 284 
Q 544 659 544 1381 
z
M 1991 3584 
L 1991 3584 
z
" id="DejaVuSans-75" transform="scale(0.015625)"/>
       <path d="M 3513 2113 
L 3513 0 
L 2938 0 
L 2938 2094 
Q 2938 2591 2744 2837 
Q 2550 3084 2163 3084 
Q 1697 3084 1428 2787 
Q 1159 2491 1159 1978 
L 1159 0 
L 581 0 
L 581 3500 
L 1159 3500 
L 1159 2956 
Q 1366 3272 1645 3428 
Q 1925 3584 2291 3584 
Q 2894 3584 3203 3211 
Q 3513 2838 3513 2113 
z
" id="DejaVuSans-6e" transform="scale(0.015625)"/>
       <path d="M 3122 3366 
L 3122 2828 
Q 2878 2963 2633 3030 
Q 2388 3097 2138 3097 
Q 1578 3097 1268 2742 
Q 959 2388 959 1747 
Q 959 1106 1268 751 
Q 1578 397 2138 397 
Q 2388 397 2633 464 
Q 2878 531 3122 666 
L 3122 134 
Q 2881 22 2623 -34 
Q 2366 -91 2075 -91 
Q 1284 -91 818 406 
Q 353 903 353 1747 
Q 353 2603 823 3093 
Q 1294 3584 2113 3584 
Q 2378 3584 2631 3529 
Q 2884 3475 3122 3366 
z
" id="DejaVuSans-63" transform="scale(0.015625)"/>
       <path d="M 2059 -325 
Q 1816 -950 1584 -1140 
Q 1353 -1331 966 -1331 
L 506 -1331 
L 506 -850 
L 844 -850 
Q 1081 -850 1212 -737 
Q 1344 -625 1503 -206 
L 1606 56 
L 191 3500 
L 800 3500 
L 1894 763 
L 2988 3500 
L 3597 3500 
L 2059 -325 
z
" id="DejaVuSans-79" transform="scale(0.015625)"/>
       <path id="DejaVuSans-20" transform="scale(0.015625)"/>
       <path d="M 1984 4856 
Q 1566 4138 1362 3434 
Q 1159 2731 1159 2009 
Q 1159 1288 1364 580 
Q 1569 -128 1984 -844 
L 1484 -844 
Q 1016 -109 783 600 
Q 550 1309 550 2009 
Q 550 2706 781 3412 
Q 1013 4119 1484 4856 
L 1984 4856 
z
" id="DejaVuSans-28" transform="scale(0.015625)"/>
       <path d="M 628 4666 
L 1259 4666 
L 1259 2753 
L 3553 2753 
L 3553 4666 
L 4184 4666 
L 4184 0 
L 3553 0 
L 3553 2222 
L 1259 2222 
L 1259 0 
L 628 0 
L 628 4666 
z
" id="DejaVuSans-48" transform="scale(0.015625)"/>
       <path d="M 353 3500 
L 3084 3500 
L 3084 2975 
L 922 459 
L 3084 459 
L 3084 0 
L 275 0 
L 275 525 
L 2438 3041 
L 353 3041 
L 353 3500 
z
" id="DejaVuSans-7a" transform="scale(0.015625)"/>
       <path d="M 513 4856 
L 1013 4856 
Q 1481 4119 1714 3412 
Q 1947 2706 1947 2009 
Q 1947 1309 1714 600 
Q 1481 -109 1013 -844 
L 513 -844 
Q 928 -128 1133 580 
Q 1338 1288 1338 2009 
Q 1338 2731 1133 3434 
Q 928 4138 513 4856 
z
" id="DejaVuSans-29" transform="scale(0.015625)"/>
      </defs>
      <use xlink:href="#DejaVuSans-46"/>
      <use x="50.269531" xlink:href="#DejaVuSans-72"/>
      <use x="89.132812" xlink:href="#DejaVuSans-65"/>
      <use x="150.65625" xlink:href="#DejaVuSans-71"/>
      <use x="214.132812" xlink:href="#DejaVuSans-75"/>
      <use x="277.511719" xlink:href="#DejaVuSans-65"/>
      <use x="339.035156" xlink:href="#DejaVuSans-6e"/>
      <use x="402.414062" xlink:href="#DejaVuSans-63"/>
      <use x="457.394531" xlink:href="#DejaVuSans-79"/>
      <use x="516.574219" xlink:href="#DejaVuSans-20"/>
      <use x="548.361328" xlink:href="#DejaVuSans-28"/>
      <use x="587.375" xlink:href="#DejaVuSans-48"/>
      <use x="662.570312" xlink:href="#DejaVuSans-7a"/>
      <use x="715.060547" xlink:href="#DejaVuSans-29"/>
     </g>
    </g>
   </g>
   <g id="matplotlib.axis_2">
    <g id="ytick_1">
     <g id="line2d_7">
      <defs>
       <path d="M 0 0 
L -3.5 0 
" id="m86cb04a547" style="stroke:#000000;stroke-width:0.8;"/>
      </defs>
      <g>
       <use style="stroke:#000000;stroke-width:0.8;" x="72" xlink:href="#m86cb04a547" y="288.36"/>
      </g>
     </g>
     <g id="text_8">
      <!-- $\mathdefault{10^{-7}}$ -->
      <g transform="translate(41.5 292.159219)scale(0.1 -0.1)">
       <defs>
        <path d="M 678 2272 
L 4684 2272 
L 4684 1741 
L 678 1741 
L 678 2272 
z
" id="DejaVuSans-2212" transform="scale(0.015625)"/>
        <path d="M 525 4666 
L 3525 4666 
L 3525 4397 
L 1831 0 
L 1172 0 
L 2766 4134 
L 525 4134 
L 525 4666 
z
" id="DejaVuSans-37" transform="scale(0.015625)"/>
       </defs>
       <use transform="translate(0 0.684375)" xlink:href="#DejaVuSans-31"/>
       <use transform="translate(63.623047 0.684375)" xlink:href="#DejaVuSans-30"/>
       <use transform="translate(128.203125 38.965625)scale(0.7)" xlink:href="#DejaVuSans-2212"/>
       <use transform="translate(186.855469 38.965625)scale(0.7)" xlink:href="#DejaVuSans-37"/>
      </g>
     </g>
    </g>
    <g id="ytick_2">
     <g id="line2d_8">
      <g>
       <use style="stroke:#000000;stroke-width:0.8;" x="72" xlink:href="#m86cb04a547" y="232.92"/>
      </g>
     </g>
     <g id="text_9">
      <!-- $\mathdefault{10^{-5}}$ -->
      <g transform="translate(41.5 236.719219)scale(0.1 -0.1)">
       <use transform="translate(0 0.684375)" xlink:href="#DejaVuSans-31"/>
       <use transform="translate(63.623047 0.684375)" xlink:href="#DejaVuSans-30"/>
       <use transform="translate(128.203125 38.965625)scale(0.7)" xlink:href="#DejaVuSans-2212"/>
       <use transform="translate(186.855469 38.965625)scale(0.7)" xlink:href="#DejaVuSans-35"/>
      </g>
     </g>
    </g>
    <g id="ytick_3">
     <g id="line2d_9">
      <g>
       <use style="stroke:#000000;stroke-width:0.8;" x="72" xlink:href="#m86cb04a547" y="177.48"/>
      </g>
     </g>
     <g id="text_10">
      <!-- $\mathdefault{10^{-3}}$ -->
      <g transform="translate(41.5 181.279219)scale(0.1 -0.1)">
       <defs>
        <path d="M 2597 2516 
Q 3050 2419 3304 2112 
Q 3559 1806 3559 1356 
Q 3559 666 3084 287 
Q 2609 -91 1734 -91 
Q 1441 -91 1130 -33 
Q 819 25 488 141 
L 488 750 
Q 750 597 1062 519 
Q 1375 441 1716 441 
Q 2309 441 2620 675 
Q 2931 909 2931 1356 
Q 2931 1769 2642 2001 
Q 2353 2234 1838 2234 
L 1294 2234 
L 1294 2753 
L 1863 2753 
Q 2328 2753 2575 2939 
Q 2822 3125 2822 3475 
Q 2822 3834 2567 4026 
Q 2313 4219 1838 4219 
Q 1578 4219 1281 4162 
Q 984 4106 628 3988 
L 628 4550 
Q 988 4650 1302 4700 
Q 1616 4750 1894 4750 
Q 2613 4750 3031 4423 
Q 3450 4097 3450 3541 
Q 3450 3153 3228 2886 
Q 3006 2619 2597 2516 
z
" id="DejaVuSans-33" transform="scale(0.015625)"/>
       </defs>
       <use transform="translate(0 0.765625)" xlink:href="#DejaVuSans-31"/>
       <use transform="translate(63.623047 0.765625)" xlink:href="#DejaVuSans-30"/>
       <use transform="translate(128.203125 39.046875)scale(0.7)" xlink:href="#DejaVuSans-2212"/>
       <use transform="translate(186.855469 39.046875)scale(0.7)" xlink:href="#DejaVuSans-33"/>
      </g>
     </g>
    </g>
    <g id="ytick_4">
     <g id="line2d_10">
      <g>
       <use style="stroke:#000000;stroke-width:0.8;" x="72" xlink:href="#m86cb04a547" y="122.04"/>
      </g>
     </g>
     <g id="text_11">
      <!-- $\mathdefault{10^{-1}}$ -->
      <g transform="translate(41.5 125.839219)scale(0.1 -0.1)">
       <use transform="translate(0 0.684375)" xlink:href="#DejaVuSans-31"/>
       <use transform="translate(63.623047 0.684375)" xlink:href="#DejaVuSans-30"/>
       <use transform="translate(128.203125 38.965625)scale(0.7)" xlink:href="#DejaVuSans-2212"/>
       <use transform="translate(186.855469 38.965625)scale(0.7)" xlink:href="#DejaVuSans-31"/>
      </g>
     </g>
    </g>
    <g id="ytick_5">
     <g id="line2d_11">
      <g>
       <use style="stroke:#000000;stroke-width:0.8;" x="72" xlink:href="#m86cb04a547" y="66.6"/>
      </g>
     </g>
     <g id="text_12">
      <!-- $\mathdefault{10^{1}}$ -->
      <g transform="translate(47.4 70.399219)scale(0.1 -0.1)">
       <use transform="translate(0 0.684375)" xlink:href="#DejaVuSans-31"/>
       <use transform="translate(63.623047 0.684375)" xlink:href="#DejaVuSans-30"/>
       <use transform="translate(128.203125 38.965625)scale(0.7)" xlink:href="#DejaVuSans-31"/>
      </g>
     </g>
    </g>
    <g id="text_13">
     <!-- Velocity spectrum -->
     <g transform="translate(35.420312 208.484062)rotate(-90)scale(0.1 -0.1)">
      <defs>
       <path d="M 1831 0 
L 50 4666 
L 709 4666 
L 2188 738 
L 3669 4666 
L 4325 4666 
L 2547 0 
L 1831 0 
z
" id="DejaVuSans-56" transform="scale(0.015625)"/>
       <path d="M 603 4863 
L 1178 4863 
L 1178 0 
L 603 0 
L 603 4863 
z
" id="DejaVuSans-6c" transform="scale(0.015625)"/>
       <path d="M 1959 3097 
Q 1497 3097 1228 2736 
Q 959 2375 959 1747 
Q 959 1119 1226 758 
Q 1494 397 1959 397 
Q 2419 397 2687 759 
Q 2956 1122 2956 1747 
Q 2956 2369 2687 2733 
Q 2419 3097 1959 3097 
z
M 1959 3584 
Q 2709 3584 3137 3096 
Q 3566 2609 3566 1747 
Q 3566 888 3137 398 
Q 2709 -91 1959 -91 
Q 1206 -91 779 398 
Q 353 888 353 1747 
Q 353 2609 779 3096 
Q 1206 3584 1959 3584 
z
" id="DejaVuSans-6f" transform="scale(0.015625)"/>
       <path d="M 603 3500 
L 1178 3500 
L 1178 0 
L 603 0 
L 603 3500 
z
M 603 4863 
L 1178 4863 
L 1178 4134 
L 603 4134 
L 603 4863 
z
" id="DejaVuSans-69" transform="scale(0.015625)"/>
       <path d="M 1172 4494 
L 1172 3500 
L 2356 3500 
L 2356 3053 
L 1172 3053 
L 1172 1153 
Q 1172 725 1289 603 
Q 1406 481 1766 481 
L 2356 481 
L 2356 0 
L 1766 0 
Q 1100 0 847 248 
Q 594 497 594 1153 
L 594 3053 
L 172 3053 
L 172 3500 
L 594 3500 
L 594 4494 
L 1172 4494 
z
" id="DejaVuSans-74" transform="scale(0.015625)"/>
       <path d="M 2834 3397 
L 2834 2853 
Q 2591 2978 2328 3040 
Q 2066 3103 1784 3103 
Q 1356 3103 1142 2972 
Q 928 2841 928 2578 
Q 928 2378 1081 2264 
Q 1234 2150 1697 2047 
L 1894 2003 
Q 2506 1872 2764 1633 
Q 3022 1394 3022 966 
Q 3022 478 2636 193 
Q 2250 -91 1575 -91 
Q 1294 -91 989 -36 
Q 684 19 347 128 
L 347 722 
Q 666 556 975 473 
Q 1284 391 1588 391 
Q 1994 391 2212 530 
Q 2431 669 2431 922 
Q 2431 1156 2273 1281 
Q 2116 1406 1581 1522 
L 1381 1569 
Q 847 1681 609 1914 
Q 372 2147 372 2553 
Q 372 3047 722 3315 
Q 1072 3584 1716 3584 
Q 2034 3584 2315 3537 
Q 2597 3491 2834 3397 
z
" id="DejaVuSans-73" transform="scale(0.015625)"/>
       <path d="M 1159 525 
L 1159 -1331 
L 581 -1331 
L 581 3500 
L 1159 3500 
L 1159 2969 
Q 1341 3281 1617 3432 
Q 1894 3584 2278 3584 
Q 2916 3584 3314 3078 
Q 3713 2572 3713 1747 
Q 3713 922 3314 415 
Q 2916 -91 2278 -91 
Q 1894 -91 1617 61 
Q 1341 213 1159 525 
z
M 3116 1747 
Q 3116 2381 2855 2742 
Q 2594 3103 2138 3103 
Q 1681 3103 1420 2742 
Q 1159 2381 1159 1747 
Q 1159 1113 1420 752 
Q 1681 391 2138 391 
Q 2594 391 2855 752 
Q 3116 1113 3116 1747 
z
" id="DejaVuSans-70" transform="scale(0.015625)"/>
       <path d="M 3328 2828 
Q 3544 3216 3844 3400 
Q 4144 3584 4550 3584 
Q 5097 3584 5394 3201 
Q 5691 2819 5691 2113 
L 5691 0 
L 5113 0 
L 5113 2094 
Q 5113 2597 4934 2840 
Q 4756 3084 4391 3084 
Q 3944 3084 3684 2787 
Q 3425 2491 3425 1978 
L 3425 0 
L 2847 0 
L 2847 2094 
Q 2847 2600 2669 2842 
Q 2491 3084 2119 3084 
Q 1678 3084 1418 2786 
Q 1159 2488 1159 1978 
L 1159 0 
L 581 0 
L 581 3500 
L 1159 3500 
L 1159 2956 
Q 1356 3278 1631 3431 
Q 1906 3584 2284 3584 
Q 2666 3584 2933 3390 
Q 3200 3197 3328 2828 
z
" id="DejaVuSans-6d" transform="scale(0.015625)"/>
      </defs>
      <use xlink:href="#DejaVuSans-56"/>
      <use x="60.658203" xlink:href="#DejaVuSans-65"/>
      <use x="122.181641" xlink:href="#DejaVuSans-6c"/>
      <use x="149.964844" xlink:href="#DejaVuSans-6f"/>
      <use x="211.146484" xlink:href="#DejaVuSans-63"/>
      <use x="266.126953" xlink:href="#DejaVuSans-69"/>
      <use x="293.910156" xlink:href="#DejaVuSans-74"/>
      <use x="333.119141" xlink:href="#DejaVuSans-79"/>
      <use x="392.298828" xlink:href="#DejaVuSans-20"/>
      <use x="424.085938" xlink:href="#DejaVuSans-73"/>
      <use x="476.185547" xlink:href="#DejaVuSans-70"/>
      <use x="539.662109" xlink:href="#DejaVuSans-65"/>
      <use x="601.185547" xlink:href="#DejaVuSans-63"/>
      <use x="656.166016" xlink:href="#DejaVuSans-74"/>
      <use x="695.375" xlink:href="#DejaVuSans-72"/>
      <use x="736.488281" xlink:href="#DejaVuSans-75"/>
      <use x="799.867188" xlink:href="#DejaVuSans-6d"/>
     </g>
    </g>
   </g>
   <g id="line2d_12">
    <path clip-path="url(#pddbcb53c05)" d="M 72 211.485883 
L 75.188571 169.648599 
L 78.377143 136.491463 
L 81.565714 142.936892 
L 84.754286 128.596653 
L 87.942857 130.176012 
L 91.131429 124.752626 
L 94.32 121.508912 
L 97.508571 123.480312 
L 100.697143 114.896436 
L 103.885714 125.645693 
L 107.074286 109.606616 
L 110.262857 140.645723 
L 113.451429 105.309773 
L 116.64 123.421544 
L 119.828571 101.83407 
L 123.017143 109.446236 
L 126.205714 99.079608 
L 129.394286 100.235114 
L 132.582857 96.983857 
L 135.771429 92.323925 
L 138.96 95.50656 
L 142.148571 83.837476 
L 145.337143 94.622823 
L 148.525714 69.49285 
L 151.714286 62.987148 
L 154.902857 69.479233 
L 158.091429 94.596606 
L 161.28 83.800748 
L 164.468571 95.462602 
L 167.657143 92.277379 
L 170.845714 96.94098 
L 174.034286 100.204098 
L 177.222857 99.070993 
L 180.411429 109.473427 
L 183.6 101.91396 
L 186.788571 123.575275 
L 189.977143 105.563629 
L 193.165714 141.032177 
L 196.354286 110.165513 
L 199.542857 126.425563 
L 202.731429 115.955873 
L 205.92 124.889338 
L 209.108571 123.350141 
L 212.297143 127.121955 
L 215.485714 133.182258 
L 218.674286 132.358894 
L 221.862857 147.575798 
L 225.051429 142.098821 
L 228.24 176.113665 
L 231.428571 184.308588 
L 234.617143 181.177615 
L 237.805714 149.422946 
L 240.994286 157.817402 
L 244.182857 145.720173 
L 247.371429 149.789457 
L 250.56 147.090703 
L 253.748571 146.807275 
L 256.937143 151.985403 
L 260.125714 146.876766 
L 263.314286 161.40744 
L 266.502857 149.517441 
L 269.691429 185.174723 
L 272.88 155.102532 
L 276.068571 179.464831 
L 279.257143 165.91576 
L 282.445714 186.226512 
L 285.634286 194.787419 
L 288.822857 178.144694 
L 292.011429 171.183253 
L 295.2 165.952611 
L 298.388571 170.336512 
L 301.577143 161.406997 
L 304.765714 176.877691 
L 307.954286 160.306713 
L 309.655111 325 
M 312.637632 325 
L 314.331429 161.758597 
L 317.52 179.773411 
L 320.708571 165.727437 
L 323.897143 176.043076 
L 327.085714 172.964876 
L 330.274286 179.307799 
L 333.462857 186.737203 
L 336.651429 197.156944 
L 339.84 205.986867 
L 343.028571 183.92734 
L 346.217143 198.284303 
L 349.405714 175.183172 
L 352.594286 206.686541 
L 355.782857 172.548944 
L 358.971429 186.015161 
L 362.16 173.102086 
L 365.348571 179.861148 
L 368.537143 176.360004 
L 371.725714 178.340215 
L 374.914286 182.744984 
L 378.102857 180.369826 
L 381.291429 194.098552 
L 384.48 187.118394 
L 387.668571 219.312707 
L 390.857143 216.049631 
L 394.045714 225.349197 
L 397.234286 191.637015 
L 400.422857 198.803545 
L 403.611429 185.676381 
L 406.8 188.816374 
L 409.988571 185.255379 
L 413.177143 184.16061 
L 416.365714 188.568516 
L 419.554286 182.723631 
L 422.742857 196.545805 
L 425.931429 183.968495 
L 429.12 218.951095 
L 432.308571 188.202687 
L 435.497143 211.85676 
L 438.685714 197.475624 
L 441.874286 216.313639 
L 445.062857 236.556167 
L 448.251429 210.247689 
L 451.44 202.208239 
L 454.628571 196.294824 
L 457.817143 200.114969 
L 461.005714 190.678268 
L 464.194286 205.675725 
L 467.382857 188.654711 
L 468.815254 325 
M 472.331068 325 
L 473.76 189.252432 
L 476.948571 206.854096 
L 480.137143 192.397522 
L 483.325714 202.296987 
L 486.514286 198.781389 
L 489.702857 204.627267 
L 492.891429 211.365009 
L 496.08 219.793914 
L 499.268571 234.188257 
L 502.457143 209.544394 
L 505.645714 223.193188 
L 508.834286 199.628504 
L 512.022857 230.751359 
L 515.211429 196.273012 
L 518.4 209.421332 
L 521.588571 196.204805 
L 521.588571 196.204805 
" style="fill:none;stroke:#000000;stroke-linecap:square;stroke-width:1.5;"/>
   </g>
   <g id="line2d_13">
    <path clip-path="url(#pddbcb53c05)" d="M 72 152.757535 
L 75.188571 145.472911 
L 78.377143 136.275879 
L 81.565714 138.790587 
L 84.754286 132.026212 
L 87.942857 126.959927 
L 91.131429 130.168993 
L 94.32 119.722784 
L 97.508571 135.67221 
L 100.697143 114.013635 
L 103.885714 144.099101 
L 107.074286 109.891293 
L 110.262857 120.686158 
L 113.451429 106.778525 
L 116.64 110.277506 
L 119.828571 104.839812 
L 123.017143 102.579556 
L 126.205714 104.111492 
L 129.394286 96.12923 
L 132.582857 105.689969 
L 135.771429 89.809711 
L 138.96 114.081639 
L 142.148571 82.362654 
L 145.337143 98.402103 
L 148.525714 67.215926 
L 151.714286 63.975586 
L 154.902857 74.384462 
L 158.091429 85.868396 
L 161.28 88.863909 
L 164.468571 90.981473 
L 167.657143 99.347891 
L 170.845714 94.703524 
L 174.034286 111.629338 
L 177.222857 98.411782 
L 180.411429 138.960225 
L 183.6 102.590374 
L 186.788571 122.376603 
L 189.977143 107.5322 
L 193.165714 118.20611 
L 196.354286 113.575259 
L 199.542857 118.397132 
L 202.731429 121.191859 
L 205.92 120.95472 
L 209.108571 131.416015 
L 212.297143 125.540539 
L 215.485714 147.179948 
L 218.674286 132.679607 
L 221.862857 169.126458 
L 225.051429 144.429895 
L 228.24 168.517954 
L 231.428571 174.550064 
L 234.617143 161.979824 
L 237.805714 150.919605 
L 240.994286 151.669515 
L 244.182857 149.363265 
L 247.371429 148.072546 
L 250.56 150.861267 
L 253.748571 148.033133 
L 256.937143 150.244071 
L 260.125714 149.580583 
L 263.314286 145.458876 
L 266.502857 151.332761 
L 269.691429 139.383023 
L 272.88 153.935253 
L 276.068571 133.956088 
L 279.257143 162.120609 
L 282.445714 129.214215 
L 285.634286 143.920842 
L 288.822857 125.042486 
L 292.011429 130.910247 
L 295.2 120.886197 
L 298.388571 119.951442 
L 301.577143 114.623483 
L 304.765714 106.247919 
L 307.954286 95.015004 
L 311.142857 97.710042 
L 314.331429 119.890444 
L 317.52 113.484579 
L 320.708571 138.548 
L 323.897143 121.011251 
L 327.085714 136.888251 
L 330.274286 127.158651 
L 333.462857 135.673715 
L 336.651429 133.339042 
L 339.84 136.355084 
L 343.028571 140.264211 
L 346.217143 138.249605 
L 349.405714 148.66018 
L 352.594286 141.136164 
L 355.782857 159.527768 
L 358.971429 144.990685 
L 362.16 168.656957 
L 365.348571 149.950266 
L 368.537143 167.393197 
L 371.725714 156.317218 
L 374.914286 168.483177 
L 378.102857 164.843279 
L 381.291429 174.02737 
L 384.48 176.932166 
L 387.668571 193.752957 
L 390.857143 201.924705 
L 394.045714 179.265035 
L 397.234286 188.081792 
L 400.422857 172.411829 
L 403.611429 191.257029 
L 406.8 170.04498 
L 409.988571 186.149091 
L 413.177143 170.192569 
L 416.365714 177.2581 
L 419.554286 172.062329 
L 422.742857 171.667247 
L 425.931429 174.167084 
L 429.12 167.899544 
L 432.308571 170.866601 
L 435.497143 165.397374 
L 438.685714 163.896379 
L 441.874286 164.111831 
L 445.062857 157.157976 
L 448.251429 164.427422 
L 451.44 150.553976 
L 454.628571 165.590486 
L 457.817143 142.515579 
L 461.005714 151.288955 
L 464.194286 128.83907 
L 467.382857 125.022826 
L 470.571429 134.090074 
L 473.76 145.04061 
L 476.948571 148.884327 
L 480.137143 152.081313 
L 483.325714 159.27417 
L 486.514286 155.947566 
L 489.702857 170.088623 
L 492.891429 159.606038 
L 496.08 181.476563 
L 499.268571 163.668096 
L 502.457143 180.484942 
L 505.645714 168.361186 
L 508.834286 178.328802 
L 512.022857 173.682837 
L 515.211429 179.055122 
L 518.4 179.097011 
L 521.588571 182.041057 
L 521.588571 182.041057 
" style="fill:none;stroke:#000000;stroke-linecap:square;stroke-width:1.5;"/>
   </g>
   <g id="line2d_14">
    <defs>
     <path d="M 0 5 
C 1.326016 5 2.597899 4.473168 3.535534 3.535534 
C 4.473168 2.597899 5 1.326016 5 0 
C 5 -1.326016 4.473168 -2.597899 3.535534 -3.535534 
C 2.597899 -4.473168 1.326016 -5 0 -5 
C -1.326016 -5 -2.597899 -4.473168 -3.535534 -3.535534 
C -4.473168 -2.597899 -5 -1.326016 -5 0 
C -5 1.326016 -4.473168 2.597899 -3.535534 3.535534 
C -2.597899 4.473168 -1.326016 5 0 5 
z
" id="m187be8cff7" style="stroke:#000000;"/>
    </defs>
    <g clip-path="url(#pddbcb53c05)">
     <use style="stroke:#000000;" x="151.714286" xlink:href="#m187be8cff7" y="63.975586"/>
     <use style="stroke:#000000;" x="307.954286" xlink:href="#m187be8cff7" y="95.015004"/>
     <use style="stroke:#000000;" x="467.382857" xlink:href="#m187be8cff7" y="125.022826"/>
     <use style="stroke:#000000;" x="543.908571" xlink:href="#m187be8cff7" y="200.317397"/>
     <use style="stroke:#000000;" x="623.622857" xlink:href="#m187be8cff7" y="160.191306"/>
     <use style="stroke:#000000;" x="703.337143" xlink:href="#m187be8cff7" y="217.234433"/>
     <use style="stroke:#000000;" x="779.862857" xlink:href="#m187be8cff7" y="196.92795"/>
     <use style="stroke:#000000;" x="891.462857" xlink:href="#m187be8cff7" y="217.445449"/>
     <use style="stroke:#000000;" x="1003.062857" xlink:href="#m187be8cff7" y="222.370419"/>
     <use style="stroke:#000000;" x="1114.662857" xlink:href="#m187be8cff7" y="228.311059"/>
     <use style="stroke:#000000;" x="1210.32" xlink:href="#m187be8cff7" y="231.524031"/>
     <use style="stroke:#000000;" x="1321.92" xlink:href="#m187be8cff7" y="234.349546"/>
     <use style="stroke:#000000;" x="1433.52" xlink:href="#m187be8cff7" y="238.545674"/>
     <use style="stroke:#000000;" x="1535.554286" xlink:href="#m187be8cff7" y="241.472209"/>
     <use style="stroke:#000000;" x="1640.777143" xlink:href="#m187be8cff7" y="243.391709"/>
     <use style="stroke:#000000;" x="1752.377143" xlink:href="#m187be8cff7" y="246.467641"/>
     <use style="stroke:#000000;" x="1854.411429" xlink:href="#m187be8cff7" y="249.327271"/>
     <use style="stroke:#000000;" x="1959.634286" xlink:href="#m187be8cff7" y="250.712334"/>
     <use style="stroke:#000000;" x="2071.234286" xlink:href="#m187be8cff7" y="252.973802"/>
     <use style="stroke:#000000;" x="2230.662857" xlink:href="#m187be8cff7" y="255.848675"/>
     <use style="stroke:#000000;" x="2390.091429" xlink:href="#m187be8cff7" y="258.525023"/>
     <use style="stroke:#000000;" x="2549.52" xlink:href="#m187be8cff7" y="261.032635"/>
     <use style="stroke:#000000;" x="2708.948571" xlink:href="#m187be8cff7" y="263.395617"/>
     <use style="stroke:#000000;" x="2868.377143" xlink:href="#m187be8cff7" y="265.633812"/>
     <use style="stroke:#000000;" x="3027.805714" xlink:href="#m187be8cff7" y="267.763806"/>
     <use style="stroke:#000000;" x="3117.085714" xlink:href="#m187be8cff7" y="279.602063"/>
     <use style="stroke:#000000;" x="3193.611429" xlink:href="#m187be8cff7" y="269.735064"/>
     <use style="stroke:#000000;" x="3353.04" xlink:href="#m187be8cff7" y="271.553047"/>
     <use style="stroke:#000000;" x="3512.468571" xlink:href="#m187be8cff7" y="273.297409"/>
     <use style="stroke:#000000;" x="3671.897143" xlink:href="#m187be8cff7" y="274.977292"/>
     <use style="stroke:#000000;" x="3831.325714" xlink:href="#m187be8cff7" y="276.600821"/>
     <use style="stroke:#000000;" x="3990.754286" xlink:href="#m187be8cff7" y="278.175314"/>
     <use style="stroke:#000000;" x="4150.182857" xlink:href="#m187be8cff7" y="279.707455"/>
     <use style="stroke:#000000;" x="4309.611429" xlink:href="#m187be8cff7" y="281.203437"/>
     <use style="stroke:#000000;" x="4421.211429" xlink:href="#m187be8cff7" y="282.654842"/>
     <use style="stroke:#000000;" x="4580.64" xlink:href="#m187be8cff7" y="283.982322"/>
     <use style="stroke:#000000;" x="4740.068571" xlink:href="#m187be8cff7" y="285.291303"/>
     <use style="stroke:#000000;" x="4899.497143" xlink:href="#m187be8cff7" y="286.586977"/>
     <use style="stroke:#000000;" x="5058.925714" xlink:href="#m187be8cff7" y="287.874618"/>
     <use style="stroke:#000000;" x="5218.354286" xlink:href="#m187be8cff7" y="289.159699"/>
     <use style="stroke:#000000;" x="5377.782857" xlink:href="#m187be8cff7" y="290.448025"/>
     <use style="stroke:#000000;" x="5537.211429" xlink:href="#m187be8cff7" y="291.745898"/>
     <use style="stroke:#000000;" x="5696.64" xlink:href="#m187be8cff7" y="293.060316"/>
     <use style="stroke:#000000;" x="5856.068571" xlink:href="#m187be8cff7" y="294.399227"/>
     <use style="stroke:#000000;" x="6015.497143" xlink:href="#m187be8cff7" y="295.771877"/>
     <use style="stroke:#000000;" x="6174.925714" xlink:href="#m187be8cff7" y="297.189279"/>
     <use style="stroke:#000000;" x="6334.354286" xlink:href="#m187be8cff7" y="298.664877"/>
     <use style="stroke:#000000;" x="6493.782857" xlink:href="#m187be8cff7" y="300.215517"/>
     <use style="stroke:#000000;" x="6659.588571" xlink:href="#m187be8cff7" y="301.755509"/>
     <use style="stroke:#000000;" x="6819.017143" xlink:href="#m187be8cff7" y="303.341807"/>
     <use style="stroke:#000000;" x="6978.445714" xlink:href="#m187be8cff7" y="305.082247"/>
     <use style="stroke:#000000;" x="7061.348571" xlink:href="#m187be8cff7" y="319.780529"/>
     <use style="stroke:#000000;" x="7137.874286" xlink:href="#m187be8cff7" y="307.02923"/>
     <use style="stroke:#000000;" x="7220.777143" xlink:href="#m187be8cff7" y="323.044615"/>
     <use style="stroke:#000000;" x="7297.302857" xlink:href="#m187be8cff7" y="309.262092"/>
     <use style="stroke:#000000;" x="7380.205714" xlink:href="#m187be8cff7" y="326.759418"/>
     <use style="stroke:#000000;" x="7456.731429" xlink:href="#m187be8cff7" y="311.909755"/>
     <use style="stroke:#000000;" x="7539.634286" xlink:href="#m187be8cff7" y="331.112639"/>
     <use style="stroke:#000000;" x="7616.16" xlink:href="#m187be8cff7" y="315.203502"/>
     <use style="stroke:#000000;" x="7718.194286" xlink:href="#m187be8cff7" y="319.359787"/>
     <use style="stroke:#000000;" x="7829.794286" xlink:href="#m187be8cff7" y="320.831498"/>
     <use style="stroke:#000000;" x="7941.394286" xlink:href="#m187be8cff7" y="326.155014"/>
     <use style="stroke:#000000;" x="8037.051429" xlink:href="#m187be8cff7" y="328.926453"/>
    </g>
   </g>
   <g id="line2d_15">
    <path clip-path="url(#pddbcb53c05)" d="M 72 140.853323 
L 75.188571 156.294496 
L 78.377143 150.348393 
L 81.565714 131.341206 
L 84.754286 133.558725 
L 87.942857 125.686581 
L 91.131429 123.525178 
L 94.32 123.638242 
L 97.508571 116.359657 
L 100.697143 124.857861 
L 103.885714 110.825326 
L 107.074286 132.769546 
L 110.262857 106.402288 
L 113.451429 125.601391 
L 116.64 102.82743 
L 119.828571 111.291191 
L 123.017143 99.936835 
L 126.205714 101.803168 
L 129.394286 97.564557 
L 132.582857 93.682897 
L 135.771429 95.235506 
L 138.96 84.927057 
L 142.148571 89.253921 
L 145.337143 71.430963 
L 148.525714 64.44854 
L 151.714286 70.299135 
L 154.902857 91.170401 
L 158.091429 84.810788 
L 161.28 97.041481 
L 164.468571 93.284092 
L 167.657143 98.682515 
L 170.845714 101.005794 
L 174.034286 100.724037 
L 177.222857 109.775599 
L 180.411429 103.476367 
L 183.6 121.770979 
L 186.788571 107.051329 
L 189.977143 134.991092 
L 193.165714 111.590476 
L 196.354286 128.314212 
L 199.542857 117.315281 
L 202.731429 126.897087 
L 205.92 124.592005 
L 209.108571 129.17237 
L 212.297143 134.054176 
L 215.485714 134.53018 
L 218.674286 146.726353 
L 221.862857 144.699484 
L 225.051429 169.400091 
L 228.24 161.637654 
L 231.428571 173.713211 
L 234.617143 159.896208 
L 237.805714 168.373454 
L 240.994286 158.537536 
L 244.182857 160.31205 
L 247.371429 168.158766 
L 250.56 153.744202 
L 253.748571 158.460957 
L 256.937143 143.850842 
L 260.125714 152.315101 
L 263.314286 136.011128 
L 266.502857 147.428876 
L 269.691429 130.287132 
L 272.88 138.144321 
L 276.068571 125.932311 
L 279.257143 128.653783 
L 282.445714 122.144043 
L 285.634286 119.891306 
L 288.822857 117.115169 
L 292.011429 110.518098 
L 295.2 106.988618 
L 298.388571 99.737934 
L 301.577143 92.173889 
L 304.765714 96.226136 
L 307.954286 106.235191 
L 311.142857 109.011311 
L 314.331429 119.652427 
L 317.52 118.467973 
L 320.708571 124.779192 
L 323.897143 125.936991 
L 327.085714 127.534101 
L 330.274286 133.371054 
L 333.462857 130.247363 
L 336.651429 141.386197 
L 339.84 133.470172 
L 343.028571 148.499546 
L 346.217143 137.423122 
L 349.405714 150.947644 
L 352.594286 142.290734 
L 355.782857 151.601647 
L 358.971429 148.28577 
L 362.16 153.690441 
L 365.348571 155.618483 
L 368.537143 158.044741 
L 371.725714 164.321704 
L 374.914286 165.410857 
L 378.102857 177.58216 
L 381.291429 179.505551 
L 384.48 178.793868 
L 390.857143 201.900981 
L 394.045714 179.24203 
L 397.234286 188.430282 
L 400.422857 178.130204 
L 403.611429 183.975227 
L 406.8 175.927529 
L 409.988571 177.760651 
L 413.177143 171.491405 
L 416.365714 167.429194 
L 419.554286 167.634126 
L 422.742857 159.638386 
L 425.931429 162.680068 
L 429.12 153.574117 
L 432.308571 155.23171 
L 435.497143 147.973549 
L 438.685714 146.832021 
L 441.874286 140.974511 
L 445.062857 137.710593 
L 448.251429 131.427498 
L 451.44 129.742609 
L 454.628571 123.135965 
L 457.817143 125.27294 
L 461.005714 130.188593 
L 464.194286 134.713384 
L 467.382857 143.122266 
L 470.571429 145.152378 
L 473.76 151.530057 
L 476.948571 153.075251 
L 480.137143 155.859581 
L 483.325714 159.999105 
L 486.514286 158.964923 
L 489.702857 166.641668 
L 492.891429 161.952346 
L 496.08 172.608246 
L 499.268571 165.20674 
L 502.457143 176.502007 
L 505.645714 168.941229 
L 508.834286 178.276296 
L 512.022857 173.347605 
L 515.211429 179.804844 
L 518.4 178.627505 
L 521.588571 182.391303 
L 521.588571 182.391303 
" style="fill:none;stroke:#000000;stroke-linecap:square;stroke-width:1.5;"/>
   </g>
   <g id="line2d_16">
    <defs>
     <path d="M 0 -5 
L -1.12257 -1.545085 
L -4.755283 -1.545085 
L -1.816356 0.59017 
L -2.938926 4.045085 
L -0 1.90983 
L 2.938926 4.045085 
L 1.816356 0.59017 
L 4.755283 -1.545085 
L 1.12257 -1.545085 
z
" id="m4ce527160c" style="stroke:#ff0000;stroke-linejoin:bevel;"/>
    </defs>
    <g clip-path="url(#pddbcb53c05)">
     <use style="fill:#ff0000;stroke:#ff0000;stroke-linejoin:bevel;" x="148.525714" xlink:href="#m4ce527160c" y="64.44854"/>
     <use style="fill:#ff0000;stroke:#ff0000;stroke-linejoin:bevel;" x="301.577143" xlink:href="#m4ce527160c" y="92.173889"/>
     <use style="fill:#ff0000;stroke:#ff0000;stroke-linejoin:bevel;" x="454.628571" xlink:href="#m4ce527160c" y="123.135965"/>
     <use style="fill:#ff0000;stroke:#ff0000;stroke-linejoin:bevel;" x="610.868571" xlink:href="#m4ce527160c" y="159.173896"/>
     <use style="fill:#ff0000;stroke:#ff0000;stroke-linejoin:bevel;" x="767.108571" xlink:href="#m4ce527160c" y="193.223762"/>
     <use style="fill:#ff0000;stroke:#ff0000;stroke-linejoin:bevel;" x="942.48" xlink:href="#m4ce527160c" y="222.087539"/>
     <use style="fill:#ff0000;stroke:#ff0000;stroke-linejoin:bevel;" x="1054.08" xlink:href="#m4ce527160c" y="228.12815"/>
     <use style="fill:#ff0000;stroke:#ff0000;stroke-linejoin:bevel;" x="1149.737143" xlink:href="#m4ce527160c" y="231.808284"/>
     <use style="fill:#ff0000;stroke:#ff0000;stroke-linejoin:bevel;" x="1261.337143" xlink:href="#m4ce527160c" y="234.985112"/>
     <use style="fill:#ff0000;stroke:#ff0000;stroke-linejoin:bevel;" x="1372.937143" xlink:href="#m4ce527160c" y="239.870958"/>
     <use style="fill:#ff0000;stroke:#ff0000;stroke-linejoin:bevel;" x="1468.594286" xlink:href="#m4ce527160c" y="242.803967"/>
     <use style="fill:#ff0000;stroke:#ff0000;stroke-linejoin:bevel;" x="1580.194286" xlink:href="#m4ce527160c" y="244.838151"/>
     <use style="fill:#ff0000;stroke:#ff0000;stroke-linejoin:bevel;" x="1691.794286" xlink:href="#m4ce527160c" y="248.65972"/>
     <use style="fill:#ff0000;stroke:#ff0000;stroke-linejoin:bevel;" x="1787.451429" xlink:href="#m4ce527160c" y="251.238922"/>
     <use style="fill:#ff0000;stroke:#ff0000;stroke-linejoin:bevel;" x="1899.051429" xlink:href="#m4ce527160c" y="252.568011"/>
     <use style="fill:#ff0000;stroke:#ff0000;stroke-linejoin:bevel;" x="2010.651429" xlink:href="#m4ce527160c" y="255.654189"/>
     <use style="fill:#ff0000;stroke:#ff0000;stroke-linejoin:bevel;" x="2106.308571" xlink:href="#m4ce527160c" y="258.087381"/>
     <use style="fill:#ff0000;stroke:#ff0000;stroke-linejoin:bevel;" x="2217.908571" xlink:href="#m4ce527160c" y="258.938537"/>
     <use style="fill:#ff0000;stroke:#ff0000;stroke-linejoin:bevel;" x="2329.508571" xlink:href="#m4ce527160c" y="261.470482"/>
     <use style="fill:#ff0000;stroke:#ff0000;stroke-linejoin:bevel;" x="2425.165714" xlink:href="#m4ce527160c" y="263.856889"/>
     <use style="fill:#ff0000;stroke:#ff0000;stroke-linejoin:bevel;" x="2536.765714" xlink:href="#m4ce527160c" y="264.370855"/>
     <use style="fill:#ff0000;stroke:#ff0000;stroke-linejoin:bevel;" x="2648.365714" xlink:href="#m4ce527160c" y="266.462892"/>
     <use style="fill:#ff0000;stroke:#ff0000;stroke-linejoin:bevel;" x="2728.08" xlink:href="#m4ce527160c" y="272.458962"/>
     <use style="fill:#ff0000;stroke:#ff0000;stroke-linejoin:bevel;" x="2807.794286" xlink:href="#m4ce527160c" y="268.722829"/>
     <use style="fill:#ff0000;stroke:#ff0000;stroke-linejoin:bevel;" x="2887.508571" xlink:href="#m4ce527160c" y="274.516806"/>
     <use style="fill:#ff0000;stroke:#ff0000;stroke-linejoin:bevel;" x="2967.222857" xlink:href="#m4ce527160c" y="270.853514"/>
     <use style="fill:#ff0000;stroke:#ff0000;stroke-linejoin:bevel;" x="3046.937143" xlink:href="#m4ce527160c" y="276.475125"/>
     <use style="fill:#ff0000;stroke:#ff0000;stroke-linejoin:bevel;" x="3126.651429" xlink:href="#m4ce527160c" y="272.871723"/>
     <use style="fill:#ff0000;stroke:#ff0000;stroke-linejoin:bevel;" x="3206.365714" xlink:href="#m4ce527160c" y="278.346766"/>
     <use style="fill:#ff0000;stroke:#ff0000;stroke-linejoin:bevel;" x="3286.08" xlink:href="#m4ce527160c" y="274.791645"/>
     <use style="fill:#ff0000;stroke:#ff0000;stroke-linejoin:bevel;" x="3365.794286" xlink:href="#m4ce527160c" y="280.14281"/>
     <use style="fill:#ff0000;stroke:#ff0000;stroke-linejoin:bevel;" x="3445.508571" xlink:href="#m4ce527160c" y="276.625436"/>
     <use style="fill:#ff0000;stroke:#ff0000;stroke-linejoin:bevel;" x="3525.222857" xlink:href="#m4ce527160c" y="281.872951"/>
     <use style="fill:#ff0000;stroke:#ff0000;stroke-linejoin:bevel;" x="3604.937143" xlink:href="#m4ce527160c" y="278.383647"/>
     <use style="fill:#ff0000;stroke:#ff0000;stroke-linejoin:bevel;" x="3684.651429" xlink:href="#m4ce527160c" y="283.545783"/>
     <use style="fill:#ff0000;stroke:#ff0000;stroke-linejoin:bevel;" x="3764.365714" xlink:href="#m4ce527160c" y="280.075555"/>
     <use style="fill:#ff0000;stroke:#ff0000;stroke-linejoin:bevel;" x="3844.08" xlink:href="#m4ce527160c" y="285.16904"/>
     <use style="fill:#ff0000;stroke:#ff0000;stroke-linejoin:bevel;" x="3923.794286" xlink:href="#m4ce527160c" y="281.709421"/>
     <use style="fill:#ff0000;stroke:#ff0000;stroke-linejoin:bevel;" x="4003.508571" xlink:href="#m4ce527160c" y="286.749779"/>
     <use style="fill:#ff0000;stroke:#ff0000;stroke-linejoin:bevel;" x="4083.222857" xlink:href="#m4ce527160c" y="283.292708"/>
     <use style="fill:#ff0000;stroke:#ff0000;stroke-linejoin:bevel;" x="4162.937143" xlink:href="#m4ce527160c" y="288.294546"/>
     <use style="fill:#ff0000;stroke:#ff0000;stroke-linejoin:bevel;" x="4242.651429" xlink:href="#m4ce527160c" y="284.832255"/>
     <use style="fill:#ff0000;stroke:#ff0000;stroke-linejoin:bevel;" x="4322.365714" xlink:href="#m4ce527160c" y="289.809514"/>
     <use style="fill:#ff0000;stroke:#ff0000;stroke-linejoin:bevel;" x="4402.08" xlink:href="#m4ce527160c" y="286.334428"/>
     <use style="fill:#ff0000;stroke:#ff0000;stroke-linejoin:bevel;" x="4481.794286" xlink:href="#m4ce527160c" y="291.300605"/>
     <use style="fill:#ff0000;stroke:#ff0000;stroke-linejoin:bevel;" x="4561.508571" xlink:href="#m4ce527160c" y="287.805256"/>
     <use style="fill:#ff0000;stroke:#ff0000;stroke-linejoin:bevel;" x="4641.222857" xlink:href="#m4ce527160c" y="292.773613"/>
     <use style="fill:#ff0000;stroke:#ff0000;stroke-linejoin:bevel;" x="4720.937143" xlink:href="#m4ce527160c" y="289.250552"/>
     <use style="fill:#ff0000;stroke:#ff0000;stroke-linejoin:bevel;" x="4800.651429" xlink:href="#m4ce527160c" y="294.234319"/>
     <use style="fill:#ff0000;stroke:#ff0000;stroke-linejoin:bevel;" x="4880.365714" xlink:href="#m4ce527160c" y="290.676036"/>
     <use style="fill:#ff0000;stroke:#ff0000;stroke-linejoin:bevel;" x="4960.08" xlink:href="#m4ce527160c" y="295.688612"/>
     <use style="fill:#ff0000;stroke:#ff0000;stroke-linejoin:bevel;" x="5046.171429" xlink:href="#m4ce527160c" y="292.031734"/>
     <use style="fill:#ff0000;stroke:#ff0000;stroke-linejoin:bevel;" x="5129.074286" xlink:href="#m4ce527160c" y="297.223246"/>
     <use style="fill:#ff0000;stroke:#ff0000;stroke-linejoin:bevel;" x="5205.6" xlink:href="#m4ce527160c" y="293.307614"/>
     <use style="fill:#ff0000;stroke:#ff0000;stroke-linejoin:bevel;" x="5288.502857" xlink:href="#m4ce527160c" y="298.725492"/>
     <use style="fill:#ff0000;stroke:#ff0000;stroke-linejoin:bevel;" x="5365.028571" xlink:href="#m4ce527160c" y="294.577625"/>
     <use style="fill:#ff0000;stroke:#ff0000;stroke-linejoin:bevel;" x="5447.931429" xlink:href="#m4ce527160c" y="300.225742"/>
     <use style="fill:#ff0000;stroke:#ff0000;stroke-linejoin:bevel;" x="5524.457143" xlink:href="#m4ce527160c" y="295.84792"/>
     <use style="fill:#ff0000;stroke:#ff0000;stroke-linejoin:bevel;" x="5607.36" xlink:href="#m4ce527160c" y="301.731715"/>
     <use style="fill:#ff0000;stroke:#ff0000;stroke-linejoin:bevel;" x="5683.885714" xlink:href="#m4ce527160c" y="297.12524"/>
     <use style="fill:#ff0000;stroke:#ff0000;stroke-linejoin:bevel;" x="5766.788571" xlink:href="#m4ce527160c" y="303.252238"/>
     <use style="fill:#ff0000;stroke:#ff0000;stroke-linejoin:bevel;" x="5843.314286" xlink:href="#m4ce527160c" y="298.417145"/>
     <use style="fill:#ff0000;stroke:#ff0000;stroke-linejoin:bevel;" x="5926.217143" xlink:href="#m4ce527160c" y="304.797653"/>
     <use style="fill:#ff0000;stroke:#ff0000;stroke-linejoin:bevel;" x="6002.742857" xlink:href="#m4ce527160c" y="299.732328"/>
     <use style="fill:#ff0000;stroke:#ff0000;stroke-linejoin:bevel;" x="6085.645714" xlink:href="#m4ce527160c" y="306.380356"/>
     <use style="fill:#ff0000;stroke:#ff0000;stroke-linejoin:bevel;" x="6162.171429" xlink:href="#m4ce527160c" y="301.081039"/>
     <use style="fill:#ff0000;stroke:#ff0000;stroke-linejoin:bevel;" x="6245.074286" xlink:href="#m4ce527160c" y="308.015558"/>
     <use style="fill:#ff0000;stroke:#ff0000;stroke-linejoin:bevel;" x="6321.6" xlink:href="#m4ce527160c" y="302.475669"/>
     <use style="fill:#ff0000;stroke:#ff0000;stroke-linejoin:bevel;" x="6481.028571" xlink:href="#m4ce527160c" y="303.931612"/>
     <use style="fill:#ff0000;stroke:#ff0000;stroke-linejoin:bevel;" x="6592.628571" xlink:href="#m4ce527160c" y="305.36099"/>
     <use style="fill:#ff0000;stroke:#ff0000;stroke-linejoin:bevel;" x="6672.342857" xlink:href="#m4ce527160c" y="309.826574"/>
     <use style="fill:#ff0000;stroke:#ff0000;stroke-linejoin:bevel;" x="6752.057143" xlink:href="#m4ce527160c" y="306.876013"/>
     <use style="fill:#ff0000;stroke:#ff0000;stroke-linejoin:bevel;" x="6831.771429" xlink:href="#m4ce527160c" y="311.689166"/>
     <use style="fill:#ff0000;stroke:#ff0000;stroke-linejoin:bevel;" x="6911.485714" xlink:href="#m4ce527160c" y="308.515777"/>
     <use style="fill:#ff0000;stroke:#ff0000;stroke-linejoin:bevel;" x="6991.2" xlink:href="#m4ce527160c" y="313.780142"/>
     <use style="fill:#ff0000;stroke:#ff0000;stroke-linejoin:bevel;" x="7070.914286" xlink:href="#m4ce527160c" y="310.320947"/>
     <use style="fill:#ff0000;stroke:#ff0000;stroke-linejoin:bevel;" x="7150.628571" xlink:href="#m4ce527160c" y="316.189871"/>
     <use style="fill:#ff0000;stroke:#ff0000;stroke-linejoin:bevel;" x="7230.342857" xlink:href="#m4ce527160c" y="312.35053"/>
     <use style="fill:#ff0000;stroke:#ff0000;stroke-linejoin:bevel;" x="7310.057143" xlink:href="#m4ce527160c" y="319.065034"/>
     <use style="fill:#ff0000;stroke:#ff0000;stroke-linejoin:bevel;" x="7389.771429" xlink:href="#m4ce527160c" y="314.695086"/>
     <use style="fill:#ff0000;stroke:#ff0000;stroke-linejoin:bevel;" x="7469.485714" xlink:href="#m4ce527160c" y="322.663427"/>
     <use style="fill:#ff0000;stroke:#ff0000;stroke-linejoin:bevel;" x="7555.577143" xlink:href="#m4ce527160c" y="317.266097"/>
     <use style="fill:#ff0000;stroke:#ff0000;stroke-linejoin:bevel;" x="7638.48" xlink:href="#m4ce527160c" y="328.366352"/>
     <use style="fill:#ff0000;stroke:#ff0000;stroke-linejoin:bevel;" x="7715.005714" xlink:href="#m4ce527160c" y="320.189437"/>
     <use style="fill:#ff0000;stroke:#ff0000;stroke-linejoin:bevel;" x="7794.72" xlink:href="#m4ce527160c" y="335.463258"/>
     <use style="fill:#ff0000;stroke:#ff0000;stroke-linejoin:bevel;" x="7874.434286" xlink:href="#m4ce527160c" y="323.865484"/>
     <use style="fill:#ff0000;stroke:#ff0000;stroke-linejoin:bevel;" x="7992.411429" xlink:href="#m4ce527160c" y="327.149651"/>
    </g>
   </g>
   <g id="patch_3">
    <path d="M 72 288.36 
L 72 38.88 
" style="fill:none;stroke:#000000;stroke-linecap:square;stroke-linejoin:miter;stroke-width:0.8;"/>
   </g>
   <g id="patch_4">
    <path d="M 518.4 288.36 
L 518.4 38.88 
" style="fill:none;stroke:#000000;stroke-linecap:square;stroke-linejoin:miter;stroke-width:0.8;"/>
   </g>
   <g id="patch_5">
    <path d="M 72 288.36 
L 518.4 288.36 
" style="fill:none;stroke:#000000;stroke-linecap:square;stroke-linejoin:miter;stroke-width:0.8;"/>
   </g>
   <g id="patch_6">
    <path d="M 72 38.88 
L 518.4 38.88 
" style="fill:none;stroke:#000000;stroke-linecap:square;stroke-linejoin:miter;stroke-width:0.8;"/>
   </g>
  </g>
 </g>
 <defs>
  <clipPath id="pddbcb53c05">
   <rect height="249.48" width="446.4" x="72" y="38.88"/>
  </clipPath>
 </defs>
</svg>
