<?xml version="1.0" encoding="utf-8" standalone="no"?>
<!DOCTYPE svg PUBLIC "-//W3C//DTD SVG 1.1//EN"
  "http://www.w3.org/Graphics/SVG/1.1/DTD/svg11.dtd">
<svg height="324pt" version="1.1" viewBox="0 0 576 324" width="576pt" xmlns="http://www.w3.org/2000/svg" xmlns:xlink="http://www.w3.org/1999/xlink">
 <metadata>
  <rdf:RDF xmlns:cc="http://creativecommons.org/ns#" xmlns:dc="http://purl.org/dc/elements/1.1/" xmlns:rdf="http://www.w3.org/1999/02/22-rdf-syntax-ns#">
   <cc:Work>
    <dc:type rdf:resource="http://purl.org/dc/dcmitype/StillImage"/>
    <dc:date>2022-05-10T06:27:13.347944</dc:date>
    <dc:format>image/svg+xml</dc:format>
    <dc:creator>
     <cc:Agent>
      <dc:title>Matplotlib v3.4.3, https://matplotlib.org/</dc:title>
     </cc:Agent>
    </dc:creator>
   </cc:Work>
  </rdf:RDF>
 </metadata>
 <defs>
  <style type="text/css">*{stroke-linecap:butt;stroke-linejoin:round;}</style>
 </defs>
 <g id="figure_1">
  <g id="patch_1">
   <path d="M 0 324 
L 576 324 
L 576 0 
L 0 0 
z
" style="fill:#ffffff;"/>
  </g>
  <g id="axes_1">
   <g id="patch_2">
    <path d="M 72 288.36 
L 518.4 288.36 
L 518.4 38.88 
L 72 38.88 
z
" style="fill:#ffffff;"/>
   </g>
   <g id="matplotlib.axis_1">
    <g id="xtick_1">
     <g id="line2d_1">
      <defs>
       <path d="M 0 0 
L 0 3.5 
" id="m6d49ffa0d4" style="stroke:#000000;stroke-width:0.8;"/>
      </defs>
      <g>
       <use style="stroke:#000000;stroke-width:0.8;" x="76.419802" xlink:href="#m6d49ffa0d4" y="288.36"/>
      </g>
     </g>
     <g id="text_1">
      <!-- 0 -->
      <g transform="translate(73.238552 302.958438)scale(0.1 -0.1)">
       <defs>
        <path d="M 2034 4250 
Q 1547 4250 1301 3770 
Q 1056 3291 1056 2328 
Q 1056 1369 1301 889 
Q 1547 409 2034 409 
Q 2525 409 2770 889 
Q 3016 1369 3016 2328 
Q 3016 3291 2770 3770 
Q 2525 4250 2034 4250 
z
M 2034 4750 
Q 2819 4750 3233 4129 
Q 3647 3509 3647 2328 
Q 3647 1150 3233 529 
Q 2819 -91 2034 -91 
Q 1250 -91 836 529 
Q 422 1150 422 2328 
Q 422 3509 836 4129 
Q 1250 4750 2034 4750 
z
" id="DejaVuSans-30" transform="scale(0.015625)"/>
       </defs>
       <use xlink:href="#DejaVuSans-30"/>
      </g>
     </g>
    </g>
    <g id="xtick_2">
     <g id="line2d_2">
      <g>
       <use style="stroke:#000000;stroke-width:0.8;" x="164.815842" xlink:href="#m6d49ffa0d4" y="288.36"/>
      </g>
     </g>
     <g id="text_2">
      <!-- 20 -->
      <g transform="translate(158.453342 302.958438)scale(0.1 -0.1)">
       <defs>
        <path d="M 1228 531 
L 3431 531 
L 3431 0 
L 469 0 
L 469 531 
Q 828 903 1448 1529 
Q 2069 2156 2228 2338 
Q 2531 2678 2651 2914 
Q 2772 3150 2772 3378 
Q 2772 3750 2511 3984 
Q 2250 4219 1831 4219 
Q 1534 4219 1204 4116 
Q 875 4013 500 3803 
L 500 4441 
Q 881 4594 1212 4672 
Q 1544 4750 1819 4750 
Q 2544 4750 2975 4387 
Q 3406 4025 3406 3419 
Q 3406 3131 3298 2873 
Q 3191 2616 2906 2266 
Q 2828 2175 2409 1742 
Q 1991 1309 1228 531 
z
" id="DejaVuSans-32" transform="scale(0.015625)"/>
       </defs>
       <use xlink:href="#DejaVuSans-32"/>
       <use x="63.623047" xlink:href="#DejaVuSans-30"/>
      </g>
     </g>
    </g>
    <g id="xtick_3">
     <g id="line2d_3">
      <g>
       <use style="stroke:#000000;stroke-width:0.8;" x="253.211881" xlink:href="#m6d49ffa0d4" y="288.36"/>
      </g>
     </g>
     <g id="text_3">
      <!-- 40 -->
      <g transform="translate(246.849381 302.958438)scale(0.1 -0.1)">
       <defs>
        <path d="M 2419 4116 
L 825 1625 
L 2419 1625 
L 2419 4116 
z
M 2253 4666 
L 3047 4666 
L 3047 1625 
L 3713 1625 
L 3713 1100 
L 3047 1100 
L 3047 0 
L 2419 0 
L 2419 1100 
L 313 1100 
L 313 1709 
L 2253 4666 
z
" id="DejaVuSans-34" transform="scale(0.015625)"/>
       </defs>
       <use xlink:href="#DejaVuSans-34"/>
       <use x="63.623047" xlink:href="#DejaVuSans-30"/>
      </g>
     </g>
    </g>
    <g id="xtick_4">
     <g id="line2d_4">
      <g>
       <use style="stroke:#000000;stroke-width:0.8;" x="341.607921" xlink:href="#m6d49ffa0d4" y="288.36"/>
      </g>
     </g>
     <g id="text_4">
      <!-- 60 -->
      <g transform="translate(335.245421 302.958438)scale(0.1 -0.1)">
       <defs>
        <path d="M 2113 2584 
Q 1688 2584 1439 2293 
Q 1191 2003 1191 1497 
Q 1191 994 1439 701 
Q 1688 409 2113 409 
Q 2538 409 2786 701 
Q 3034 994 3034 1497 
Q 3034 2003 2786 2293 
Q 2538 2584 2113 2584 
z
M 3366 4563 
L 3366 3988 
Q 3128 4100 2886 4159 
Q 2644 4219 2406 4219 
Q 1781 4219 1451 3797 
Q 1122 3375 1075 2522 
Q 1259 2794 1537 2939 
Q 1816 3084 2150 3084 
Q 2853 3084 3261 2657 
Q 3669 2231 3669 1497 
Q 3669 778 3244 343 
Q 2819 -91 2113 -91 
Q 1303 -91 875 529 
Q 447 1150 447 2328 
Q 447 3434 972 4092 
Q 1497 4750 2381 4750 
Q 2619 4750 2861 4703 
Q 3103 4656 3366 4563 
z
" id="DejaVuSans-36" transform="scale(0.015625)"/>
       </defs>
       <use xlink:href="#DejaVuSans-36"/>
       <use x="63.623047" xlink:href="#DejaVuSans-30"/>
      </g>
     </g>
    </g>
    <g id="xtick_5">
     <g id="line2d_5">
      <g>
       <use style="stroke:#000000;stroke-width:0.8;" x="430.00396" xlink:href="#m6d49ffa0d4" y="288.36"/>
      </g>
     </g>
     <g id="text_5">
      <!-- 80 -->
      <g transform="translate(423.64146 302.958438)scale(0.1 -0.1)">
       <defs>
        <path d="M 2034 2216 
Q 1584 2216 1326 1975 
Q 1069 1734 1069 1313 
Q 1069 891 1326 650 
Q 1584 409 2034 409 
Q 2484 409 2743 651 
Q 3003 894 3003 1313 
Q 3003 1734 2745 1975 
Q 2488 2216 2034 2216 
z
M 1403 2484 
Q 997 2584 770 2862 
Q 544 3141 544 3541 
Q 544 4100 942 4425 
Q 1341 4750 2034 4750 
Q 2731 4750 3128 4425 
Q 3525 4100 3525 3541 
Q 3525 3141 3298 2862 
Q 3072 2584 2669 2484 
Q 3125 2378 3379 2068 
Q 3634 1759 3634 1313 
Q 3634 634 3220 271 
Q 2806 -91 2034 -91 
Q 1263 -91 848 271 
Q 434 634 434 1313 
Q 434 1759 690 2068 
Q 947 2378 1403 2484 
z
M 1172 3481 
Q 1172 3119 1398 2916 
Q 1625 2713 2034 2713 
Q 2441 2713 2670 2916 
Q 2900 3119 2900 3481 
Q 2900 3844 2670 4047 
Q 2441 4250 2034 4250 
Q 1625 4250 1398 4047 
Q 1172 3844 1172 3481 
z
" id="DejaVuSans-38" transform="scale(0.015625)"/>
       </defs>
       <use xlink:href="#DejaVuSans-38"/>
       <use x="63.623047" xlink:href="#DejaVuSans-30"/>
      </g>
     </g>
    </g>
    <g id="xtick_6">
     <g id="line2d_6">
      <g>
       <use style="stroke:#000000;stroke-width:0.8;" x="518.4" xlink:href="#m6d49ffa0d4" y="288.36"/>
      </g>
     </g>
     <g id="text_6">
      <!-- 100 -->
      <g transform="translate(508.85625 302.958438)scale(0.1 -0.1)">
       <defs>
        <path d="M 794 531 
L 1825 531 
L 1825 4091 
L 703 3866 
L 703 4441 
L 1819 4666 
L 2450 4666 
L 2450 531 
L 3481 531 
L 3481 0 
L 794 0 
L 794 531 
z
" id="DejaVuSans-31" transform="scale(0.015625)"/>
       </defs>
       <use xlink:href="#DejaVuSans-31"/>
       <use x="63.623047" xlink:href="#DejaVuSans-30"/>
       <use x="127.246094" xlink:href="#DejaVuSans-30"/>
      </g>
     </g>
    </g>
    <g id="text_7">
     <!-- Distance from source -->
     <g transform="translate(241.925 316.636563)scale(0.1 -0.1)">
      <defs>
       <path d="M 1259 4147 
L 1259 519 
L 2022 519 
Q 2988 519 3436 956 
Q 3884 1394 3884 2338 
Q 3884 3275 3436 3711 
Q 2988 4147 2022 4147 
L 1259 4147 
z
M 628 4666 
L 1925 4666 
Q 3281 4666 3915 4102 
Q 4550 3538 4550 2338 
Q 4550 1131 3912 565 
Q 3275 0 1925 0 
L 628 0 
L 628 4666 
z
" id="DejaVuSans-44" transform="scale(0.015625)"/>
       <path d="M 603 3500 
L 1178 3500 
L 1178 0 
L 603 0 
L 603 3500 
z
M 603 4863 
L 1178 4863 
L 1178 4134 
L 603 4134 
L 603 4863 
z
" id="DejaVuSans-69" transform="scale(0.015625)"/>
       <path d="M 2834 3397 
L 2834 2853 
Q 2591 2978 2328 3040 
Q 2066 3103 1784 3103 
Q 1356 3103 1142 2972 
Q 928 2841 928 2578 
Q 928 2378 1081 2264 
Q 1234 2150 1697 2047 
L 1894 2003 
Q 2506 1872 2764 1633 
Q 3022 1394 3022 966 
Q 3022 478 2636 193 
Q 2250 -91 1575 -91 
Q 1294 -91 989 -36 
Q 684 19 347 128 
L 347 722 
Q 666 556 975 473 
Q 1284 391 1588 391 
Q 1994 391 2212 530 
Q 2431 669 2431 922 
Q 2431 1156 2273 1281 
Q 2116 1406 1581 1522 
L 1381 1569 
Q 847 1681 609 1914 
Q 372 2147 372 2553 
Q 372 3047 722 3315 
Q 1072 3584 1716 3584 
Q 2034 3584 2315 3537 
Q 2597 3491 2834 3397 
z
" id="DejaVuSans-73" transform="scale(0.015625)"/>
       <path d="M 1172 4494 
L 1172 3500 
L 2356 3500 
L 2356 3053 
L 1172 3053 
L 1172 1153 
Q 1172 725 1289 603 
Q 1406 481 1766 481 
L 2356 481 
L 2356 0 
L 1766 0 
Q 1100 0 847 248 
Q 594 497 594 1153 
L 594 3053 
L 172 3053 
L 172 3500 
L 594 3500 
L 594 4494 
L 1172 4494 
z
" id="DejaVuSans-74" transform="scale(0.015625)"/>
       <path d="M 2194 1759 
Q 1497 1759 1228 1600 
Q 959 1441 959 1056 
Q 959 750 1161 570 
Q 1363 391 1709 391 
Q 2188 391 2477 730 
Q 2766 1069 2766 1631 
L 2766 1759 
L 2194 1759 
z
M 3341 1997 
L 3341 0 
L 2766 0 
L 2766 531 
Q 2569 213 2275 61 
Q 1981 -91 1556 -91 
Q 1019 -91 701 211 
Q 384 513 384 1019 
Q 384 1609 779 1909 
Q 1175 2209 1959 2209 
L 2766 2209 
L 2766 2266 
Q 2766 2663 2505 2880 
Q 2244 3097 1772 3097 
Q 1472 3097 1187 3025 
Q 903 2953 641 2809 
L 641 3341 
Q 956 3463 1253 3523 
Q 1550 3584 1831 3584 
Q 2591 3584 2966 3190 
Q 3341 2797 3341 1997 
z
" id="DejaVuSans-61" transform="scale(0.015625)"/>
       <path d="M 3513 2113 
L 3513 0 
L 2938 0 
L 2938 2094 
Q 2938 2591 2744 2837 
Q 2550 3084 2163 3084 
Q 1697 3084 1428 2787 
Q 1159 2491 1159 1978 
L 1159 0 
L 581 0 
L 581 3500 
L 1159 3500 
L 1159 2956 
Q 1366 3272 1645 3428 
Q 1925 3584 2291 3584 
Q 2894 3584 3203 3211 
Q 3513 2838 3513 2113 
z
" id="DejaVuSans-6e" transform="scale(0.015625)"/>
       <path d="M 3122 3366 
L 3122 2828 
Q 2878 2963 2633 3030 
Q 2388 3097 2138 3097 
Q 1578 3097 1268 2742 
Q 959 2388 959 1747 
Q 959 1106 1268 751 
Q 1578 397 2138 397 
Q 2388 397 2633 464 
Q 2878 531 3122 666 
L 3122 134 
Q 2881 22 2623 -34 
Q 2366 -91 2075 -91 
Q 1284 -91 818 406 
Q 353 903 353 1747 
Q 353 2603 823 3093 
Q 1294 3584 2113 3584 
Q 2378 3584 2631 3529 
Q 2884 3475 3122 3366 
z
" id="DejaVuSans-63" transform="scale(0.015625)"/>
       <path d="M 3597 1894 
L 3597 1613 
L 953 1613 
Q 991 1019 1311 708 
Q 1631 397 2203 397 
Q 2534 397 2845 478 
Q 3156 559 3463 722 
L 3463 178 
Q 3153 47 2828 -22 
Q 2503 -91 2169 -91 
Q 1331 -91 842 396 
Q 353 884 353 1716 
Q 353 2575 817 3079 
Q 1281 3584 2069 3584 
Q 2775 3584 3186 3129 
Q 3597 2675 3597 1894 
z
M 3022 2063 
Q 3016 2534 2758 2815 
Q 2500 3097 2075 3097 
Q 1594 3097 1305 2825 
Q 1016 2553 972 2059 
L 3022 2063 
z
" id="DejaVuSans-65" transform="scale(0.015625)"/>
       <path id="DejaVuSans-20" transform="scale(0.015625)"/>
       <path d="M 2375 4863 
L 2375 4384 
L 1825 4384 
Q 1516 4384 1395 4259 
Q 1275 4134 1275 3809 
L 1275 3500 
L 2222 3500 
L 2222 3053 
L 1275 3053 
L 1275 0 
L 697 0 
L 697 3053 
L 147 3053 
L 147 3500 
L 697 3500 
L 697 3744 
Q 697 4328 969 4595 
Q 1241 4863 1831 4863 
L 2375 4863 
z
" id="DejaVuSans-66" transform="scale(0.015625)"/>
       <path d="M 2631 2963 
Q 2534 3019 2420 3045 
Q 2306 3072 2169 3072 
Q 1681 3072 1420 2755 
Q 1159 2438 1159 1844 
L 1159 0 
L 581 0 
L 581 3500 
L 1159 3500 
L 1159 2956 
Q 1341 3275 1631 3429 
Q 1922 3584 2338 3584 
Q 2397 3584 2469 3576 
Q 2541 3569 2628 3553 
L 2631 2963 
z
" id="DejaVuSans-72" transform="scale(0.015625)"/>
       <path d="M 1959 3097 
Q 1497 3097 1228 2736 
Q 959 2375 959 1747 
Q 959 1119 1226 758 
Q 1494 397 1959 397 
Q 2419 397 2687 759 
Q 2956 1122 2956 1747 
Q 2956 2369 2687 2733 
Q 2419 3097 1959 3097 
z
M 1959 3584 
Q 2709 3584 3137 3096 
Q 3566 2609 3566 1747 
Q 3566 888 3137 398 
Q 2709 -91 1959 -91 
Q 1206 -91 779 398 
Q 353 888 353 1747 
Q 353 2609 779 3096 
Q 1206 3584 1959 3584 
z
" id="DejaVuSans-6f" transform="scale(0.015625)"/>
       <path d="M 3328 2828 
Q 3544 3216 3844 3400 
Q 4144 3584 4550 3584 
Q 5097 3584 5394 3201 
Q 5691 2819 5691 2113 
L 5691 0 
L 5113 0 
L 5113 2094 
Q 5113 2597 4934 2840 
Q 4756 3084 4391 3084 
Q 3944 3084 3684 2787 
Q 3425 2491 3425 1978 
L 3425 0 
L 2847 0 
L 2847 2094 
Q 2847 2600 2669 2842 
Q 2491 3084 2119 3084 
Q 1678 3084 1418 2786 
Q 1159 2488 1159 1978 
L 1159 0 
L 581 0 
L 581 3500 
L 1159 3500 
L 1159 2956 
Q 1356 3278 1631 3431 
Q 1906 3584 2284 3584 
Q 2666 3584 2933 3390 
Q 3200 3197 3328 2828 
z
" id="DejaVuSans-6d" transform="scale(0.015625)"/>
       <path d="M 544 1381 
L 544 3500 
L 1119 3500 
L 1119 1403 
Q 1119 906 1312 657 
Q 1506 409 1894 409 
Q 2359 409 2629 706 
Q 2900 1003 2900 1516 
L 2900 3500 
L 3475 3500 
L 3475 0 
L 2900 0 
L 2900 538 
Q 2691 219 2414 64 
Q 2138 -91 1772 -91 
Q 1169 -91 856 284 
Q 544 659 544 1381 
z
M 1991 3584 
L 1991 3584 
z
" id="DejaVuSans-75" transform="scale(0.015625)"/>
      </defs>
      <use xlink:href="#DejaVuSans-44"/>
      <use x="77.001953" xlink:href="#DejaVuSans-69"/>
      <use x="104.785156" xlink:href="#DejaVuSans-73"/>
      <use x="156.884766" xlink:href="#DejaVuSans-74"/>
      <use x="196.09375" xlink:href="#DejaVuSans-61"/>
      <use x="257.373047" xlink:href="#DejaVuSans-6e"/>
      <use x="320.751953" xlink:href="#DejaVuSans-63"/>
      <use x="375.732422" xlink:href="#DejaVuSans-65"/>
      <use x="437.255859" xlink:href="#DejaVuSans-20"/>
      <use x="469.042969" xlink:href="#DejaVuSans-66"/>
      <use x="504.248047" xlink:href="#DejaVuSans-72"/>
      <use x="543.111328" xlink:href="#DejaVuSans-6f"/>
      <use x="604.292969" xlink:href="#DejaVuSans-6d"/>
      <use x="701.705078" xlink:href="#DejaVuSans-20"/>
      <use x="733.492188" xlink:href="#DejaVuSans-73"/>
      <use x="785.591797" xlink:href="#DejaVuSans-6f"/>
      <use x="846.773438" xlink:href="#DejaVuSans-75"/>
      <use x="910.152344" xlink:href="#DejaVuSans-72"/>
      <use x="949.015625" xlink:href="#DejaVuSans-63"/>
      <use x="1003.996094" xlink:href="#DejaVuSans-65"/>
     </g>
    </g>
   </g>
   <g id="matplotlib.axis_2">
    <g id="ytick_1">
     <g id="line2d_7">
      <defs>
       <path d="M 0 0 
L -3.5 0 
" id="md59d8fbf12" style="stroke:#000000;stroke-width:0.8;"/>
      </defs>
      <g>
       <use style="stroke:#000000;stroke-width:0.8;" x="72" xlink:href="#md59d8fbf12" y="288.36"/>
      </g>
     </g>
     <g id="text_8">
      <!-- −0.03 -->
      <g transform="translate(34.354687 292.159219)scale(0.1 -0.1)">
       <defs>
        <path d="M 678 2272 
L 4684 2272 
L 4684 1741 
L 678 1741 
L 678 2272 
z
" id="DejaVuSans-2212" transform="scale(0.015625)"/>
        <path d="M 684 794 
L 1344 794 
L 1344 0 
L 684 0 
L 684 794 
z
" id="DejaVuSans-2e" transform="scale(0.015625)"/>
        <path d="M 2597 2516 
Q 3050 2419 3304 2112 
Q 3559 1806 3559 1356 
Q 3559 666 3084 287 
Q 2609 -91 1734 -91 
Q 1441 -91 1130 -33 
Q 819 25 488 141 
L 488 750 
Q 750 597 1062 519 
Q 1375 441 1716 441 
Q 2309 441 2620 675 
Q 2931 909 2931 1356 
Q 2931 1769 2642 2001 
Q 2353 2234 1838 2234 
L 1294 2234 
L 1294 2753 
L 1863 2753 
Q 2328 2753 2575 2939 
Q 2822 3125 2822 3475 
Q 2822 3834 2567 4026 
Q 2313 4219 1838 4219 
Q 1578 4219 1281 4162 
Q 984 4106 628 3988 
L 628 4550 
Q 988 4650 1302 4700 
Q 1616 4750 1894 4750 
Q 2613 4750 3031 4423 
Q 3450 4097 3450 3541 
Q 3450 3153 3228 2886 
Q 3006 2619 2597 2516 
z
" id="DejaVuSans-33" transform="scale(0.015625)"/>
       </defs>
       <use xlink:href="#DejaVuSans-2212"/>
       <use x="83.789062" xlink:href="#DejaVuSans-30"/>
       <use x="147.412109" xlink:href="#DejaVuSans-2e"/>
       <use x="179.199219" xlink:href="#DejaVuSans-30"/>
       <use x="242.822266" xlink:href="#DejaVuSans-33"/>
      </g>
     </g>
    </g>
    <g id="ytick_2">
     <g id="line2d_8">
      <g>
       <use style="stroke:#000000;stroke-width:0.8;" x="72" xlink:href="#md59d8fbf12" y="246.78"/>
      </g>
     </g>
     <g id="text_9">
      <!-- −0.02 -->
      <g transform="translate(34.354687 250.579219)scale(0.1 -0.1)">
       <use xlink:href="#DejaVuSans-2212"/>
       <use x="83.789062" xlink:href="#DejaVuSans-30"/>
       <use x="147.412109" xlink:href="#DejaVuSans-2e"/>
       <use x="179.199219" xlink:href="#DejaVuSans-30"/>
       <use x="242.822266" xlink:href="#DejaVuSans-32"/>
      </g>
     </g>
    </g>
    <g id="ytick_3">
     <g id="line2d_9">
      <g>
       <use style="stroke:#000000;stroke-width:0.8;" x="72" xlink:href="#md59d8fbf12" y="205.2"/>
      </g>
     </g>
     <g id="text_10">
      <!-- −0.01 -->
      <g transform="translate(34.354687 208.999219)scale(0.1 -0.1)">
       <use xlink:href="#DejaVuSans-2212"/>
       <use x="83.789062" xlink:href="#DejaVuSans-30"/>
       <use x="147.412109" xlink:href="#DejaVuSans-2e"/>
       <use x="179.199219" xlink:href="#DejaVuSans-30"/>
       <use x="242.822266" xlink:href="#DejaVuSans-31"/>
      </g>
     </g>
    </g>
    <g id="ytick_4">
     <g id="line2d_10">
      <g>
       <use style="stroke:#000000;stroke-width:0.8;" x="72" xlink:href="#md59d8fbf12" y="163.62"/>
      </g>
     </g>
     <g id="text_11">
      <!-- 0.00 -->
      <g transform="translate(42.734375 167.419219)scale(0.1 -0.1)">
       <use xlink:href="#DejaVuSans-30"/>
       <use x="63.623047" xlink:href="#DejaVuSans-2e"/>
       <use x="95.410156" xlink:href="#DejaVuSans-30"/>
       <use x="159.033203" xlink:href="#DejaVuSans-30"/>
      </g>
     </g>
    </g>
    <g id="ytick_5">
     <g id="line2d_11">
      <g>
       <use style="stroke:#000000;stroke-width:0.8;" x="72" xlink:href="#md59d8fbf12" y="122.04"/>
      </g>
     </g>
     <g id="text_12">
      <!-- 0.01 -->
      <g transform="translate(42.734375 125.839219)scale(0.1 -0.1)">
       <use xlink:href="#DejaVuSans-30"/>
       <use x="63.623047" xlink:href="#DejaVuSans-2e"/>
       <use x="95.410156" xlink:href="#DejaVuSans-30"/>
       <use x="159.033203" xlink:href="#DejaVuSans-31"/>
      </g>
     </g>
    </g>
    <g id="ytick_6">
     <g id="line2d_12">
      <g>
       <use style="stroke:#000000;stroke-width:0.8;" x="72" xlink:href="#md59d8fbf12" y="80.46"/>
      </g>
     </g>
     <g id="text_13">
      <!-- 0.02 -->
      <g transform="translate(42.734375 84.259219)scale(0.1 -0.1)">
       <use xlink:href="#DejaVuSans-30"/>
       <use x="63.623047" xlink:href="#DejaVuSans-2e"/>
       <use x="95.410156" xlink:href="#DejaVuSans-30"/>
       <use x="159.033203" xlink:href="#DejaVuSans-32"/>
      </g>
     </g>
    </g>
    <g id="ytick_7">
     <g id="line2d_13">
      <g>
       <use style="stroke:#000000;stroke-width:0.8;" x="72" xlink:href="#md59d8fbf12" y="38.88"/>
      </g>
     </g>
     <g id="text_14">
      <!-- 0.03 -->
      <g transform="translate(42.734375 42.679219)scale(0.1 -0.1)">
       <use xlink:href="#DejaVuSans-30"/>
       <use x="63.623047" xlink:href="#DejaVuSans-2e"/>
       <use x="95.410156" xlink:href="#DejaVuSans-30"/>
       <use x="159.033203" xlink:href="#DejaVuSans-33"/>
      </g>
     </g>
    </g>
    <g id="text_15">
     <!-- Velocity -->
     <g transform="translate(28.275 183.235625)rotate(-90)scale(0.1 -0.1)">
      <defs>
       <path d="M 1831 0 
L 50 4666 
L 709 4666 
L 2188 738 
L 3669 4666 
L 4325 4666 
L 2547 0 
L 1831 0 
z
" id="DejaVuSans-56" transform="scale(0.015625)"/>
       <path d="M 603 4863 
L 1178 4863 
L 1178 0 
L 603 0 
L 603 4863 
z
" id="DejaVuSans-6c" transform="scale(0.015625)"/>
       <path d="M 2059 -325 
Q 1816 -950 1584 -1140 
Q 1353 -1331 966 -1331 
L 506 -1331 
L 506 -850 
L 844 -850 
Q 1081 -850 1212 -737 
Q 1344 -625 1503 -206 
L 1606 56 
L 191 3500 
L 800 3500 
L 1894 763 
L 2988 3500 
L 3597 3500 
L 2059 -325 
z
" id="DejaVuSans-79" transform="scale(0.015625)"/>
      </defs>
      <use xlink:href="#DejaVuSans-56"/>
      <use x="60.658203" xlink:href="#DejaVuSans-65"/>
      <use x="122.181641" xlink:href="#DejaVuSans-6c"/>
      <use x="149.964844" xlink:href="#DejaVuSans-6f"/>
      <use x="211.146484" xlink:href="#DejaVuSans-63"/>
      <use x="266.126953" xlink:href="#DejaVuSans-69"/>
      <use x="293.910156" xlink:href="#DejaVuSans-74"/>
      <use x="333.119141" xlink:href="#DejaVuSans-79"/>
     </g>
    </g>
   </g>
   <g id="line2d_14">
    <path clip-path="url(#p44120ac885)" d="M 76.419802 81.766059 
L 77.526135 96.409391 
L 78.632469 108.458746 
L 79.185636 113.310558 
L 79.738802 117.177933 
L 80.291969 119.955666 
L 80.845136 121.576955 
L 81.398302 122.010814 
L 81.951469 121.257711 
L 82.504636 119.345077 
L 83.057802 116.324099 
L 83.610969 112.268619 
L 84.717303 101.471353 
L 86.376803 80.874102 
L 88.036303 60.106112 
L 89.142636 49.179919 
L 89.695803 45.100414 
L 90.24897 42.071287 
L 90.802136 40.141046 
L 91.355303 39.330149 
L 91.90847 39.639287 
L 92.461636 41.055228 
L 93.014803 43.552997 
L 93.56797 47.093947 
L 94.674303 57.044418 
L 95.780637 70.04469 
L 98.54647 104.614382 
L 99.652804 114.250648 
L 100.20597 117.568296 
L 100.759137 119.828669 
L 101.312304 121.024251 
L 101.86547 121.16006 
L 102.418637 120.245172 
L 102.971804 118.289429 
L 103.524971 115.305549 
L 104.078137 111.316643 
L 105.184471 100.546146 
L 106.290804 86.895087 
L 108.503471 58.767322 
L 109.609804 48.501171 
L 110.162971 44.850578 
L 110.716138 42.232363 
L 111.269304 40.640204 
L 111.822471 40.058219 
L 112.375638 40.472956 
L 112.928805 41.879042 
L 113.481971 44.278681 
L 114.035138 47.675048 
L 114.588305 52.059313 
L 115.694638 63.579327 
L 117.354138 85.237544 
L 118.460472 99.236097 
L 119.566805 110.257247 
L 120.119972 114.295367 
L 120.673138 117.309155 
L 121.226305 119.317505 
L 121.779472 120.350513 
L 122.332639 120.432856 
L 122.885805 119.574971 
L 123.438972 117.770994 
L 123.992139 115.002936 
L 124.545305 111.251544 
L 125.651639 100.833069 
L 126.757972 87.171835 
L 128.970639 58.739965 
L 130.076972 48.747617 
L 130.630139 45.286407 
L 131.183306 42.82999 
L 131.736473 41.333001 
L 132.289639 40.754431 
L 132.842806 41.070783 
L 133.395973 42.281179 
L 133.949139 44.406172 
L 134.502306 47.480403 
L 135.055473 51.537665 
L 136.161806 62.579777 
L 137.821306 84.311051 
L 138.92764 98.558079 
L 140.033973 109.603146 
L 140.58714 113.58153 
L 141.140307 116.535751 
L 141.693473 118.523687 
L 142.24664 119.605635 
L 142.799807 119.824553 
L 143.352973 119.196991 
L 143.90614 117.711269 
L 144.459307 115.331192 
L 145.012474 112.006114 
L 145.56564 107.689887 
L 146.671974 96.109581 
L 149.990974 54.459231 
L 150.544141 49.875327 
L 151.097307 46.34982 
L 151.650474 43.822433 
L 152.203641 42.214374 
L 152.756807 41.458672 
L 153.309974 41.515668 
L 153.863141 42.378346 
L 154.416308 44.071648 
L 154.969474 46.646911 
L 155.522641 50.16947 
L 156.075808 54.695752 
L 157.182141 66.718797 
L 159.947975 102.588981 
L 160.501141 107.876553 
L 161.054308 112.073401 
L 161.607475 115.218807 
L 162.160641 117.401183 
L 162.713808 118.712561 
L 163.266975 119.221653 
L 163.820142 118.962502 
L 164.373308 117.932187 
L 164.926475 116.093241 
L 165.479642 113.380482 
L 166.032808 109.715382 
L 166.585975 105.032628 
L 167.692308 92.672325 
L 170.458142 57.029448 
L 171.011309 52.043314 
L 171.564475 48.16572 
L 172.117642 45.323559 
L 172.670809 43.407493 
L 173.223976 42.316971 
L 173.777142 41.983697 
L 174.330309 42.379436 
L 174.883476 43.516009 
L 175.436642 45.441751 
L 175.989809 48.233928 
L 176.542976 51.982886 
L 177.096142 56.762432 
L 178.202476 69.345319 
L 180.415143 98.88146 
L 181.521476 109.508648 
L 182.074643 113.142063 
L 182.62781 115.757697 
L 183.180976 117.481011 
L 183.734143 118.418985 
L 184.28731 118.639478 
L 184.840476 118.166205 
L 185.393643 116.980463 
L 185.94681 115.025337 
L 186.499976 112.21356 
L 187.053143 108.444155 
L 187.60631 103.634154 
L 188.712643 90.952586 
L 190.92531 61.450728 
L 192.031644 51.110407 
L 192.58481 47.642119 
L 193.137977 45.178078 
L 193.691144 43.579291 
L 194.24431 42.732303 
L 194.797477 42.568111 
L 195.350644 43.065162 
L 195.90381 44.246331 
L 196.456977 46.174319 
L 197.010144 48.943986 
L 197.563311 52.665792 
L 198.116477 57.433304 
L 199.222811 70.078567 
L 201.435478 99.584181 
L 201.988644 105.282458 
L 202.541811 109.801959 
L 203.094978 113.187249 
L 203.648144 115.573171 
L 204.201311 117.111318 
L 204.754478 117.923331 
L 205.307644 118.082199 
L 205.860811 117.610479 
L 206.413978 116.484388 
L 206.967145 114.638688 
L 207.520311 111.973775 
L 208.073478 108.371141 
L 208.626645 103.725059 
L 209.732978 91.265815 
L 211.945645 61.707525 
L 212.498812 55.970196 
L 213.051978 51.430132 
L 213.605145 48.041496 
L 214.158312 45.659766 
L 214.711478 44.120768 
L 215.264645 43.291743 
L 215.817812 43.091822 
L 216.370979 43.493546 
L 216.924145 44.517857 
L 217.477312 46.228838 
L 218.030479 48.727429 
L 218.583645 52.137984 
L 219.136812 56.579196 
L 220.243146 68.683826 
L 223.008979 104.192871 
L 223.562146 108.855251 
L 224.115312 112.340521 
L 224.668479 114.795844 
L 225.221646 116.397752 
L 225.774813 117.293782 
L 226.327979 117.57754 
L 226.881146 117.286052 
L 227.434313 116.405466 
L 227.987479 114.876963 
L 228.540646 112.602338 
L 229.093813 109.454751 
L 229.64698 105.303495 
L 230.200146 100.060068 
L 231.30648 86.542453 
L 232.96598 64.065976 
L 234.072313 53.067019 
L 234.62548 49.38111 
L 235.178647 46.765598 
L 235.731813 45.033757 
L 236.28498 44.01969 
L 236.838147 43.611341 
L 237.391313 43.756524 
L 237.94448 44.457133 
L 238.497647 45.762201 
L 239.050814 47.762532 
L 239.60398 50.582728 
L 240.157147 54.362015 
L 240.710314 59.214942 
L 241.816647 72.099964 
L 244.029314 101.160003 
L 244.582481 106.404677 
L 245.135647 110.409517 
L 245.688814 113.286987 
L 246.241981 115.227145 
L 246.795147 116.416163 
L 247.348314 116.99069 
L 247.901481 117.024817 
L 248.454648 116.534394 
L 249.007814 115.485171 
L 249.560981 113.798847 
L 250.114148 111.358943 
L 250.667314 108.023979 
L 251.220481 103.657807 
L 252.326814 91.652679 
L 254.539481 62.236621 
L 255.092648 56.527642 
L 255.645815 52.070644 
L 256.198981 48.807462 
L 256.752148 46.560423 
L 257.305315 45.125926 
L 257.858482 44.337479 
L 258.411648 44.091211 
L 258.964815 44.346318 
L 259.517982 45.116466 
L 260.071148 46.462058 
L 260.624315 48.48498 
L 261.177482 51.320521 
L 261.730648 55.116965 
L 262.283815 59.993645 
L 263.390149 72.925786 
L 265.049649 95.390642 
L 266.155982 106.705458 
L 266.709149 110.504033 
L 267.262316 113.187202 
L 267.815482 114.962952 
L 268.368649 116.028596 
L 268.921816 116.525819 
L 269.474982 116.529449 
L 270.028149 116.053783 
L 270.581316 115.062227 
L 271.134482 113.473917 
L 271.687649 111.168988 
L 272.240816 108.000109 
L 272.793983 103.820552 
L 273.347149 98.536082 
L 274.453483 84.957386 
L 276.112983 62.91641 
L 276.66615 57.151815 
L 277.219316 52.64885 
L 277.772483 49.361434 
L 278.32565 47.108254 
L 278.878816 45.671375 
L 279.431983 44.866724 
L 279.98515 44.57503 
L 280.538316 44.744089 
L 281.091483 45.37923 
L 281.64465 46.53394 
L 282.197817 48.304171 
L 282.750983 50.822398 
L 283.30415 54.242455 
L 283.857317 58.704913 
L 284.96365 70.885266 
L 287.176317 99.782764 
L 287.729484 105.147448 
L 288.28265 109.240905 
L 288.835817 112.161663 
L 289.388984 114.115715 
L 289.94215 115.321913 
L 290.495317 115.951841 
L 291.048484 116.108181 
L 291.601651 115.827585 
L 292.154817 115.091573 
L 292.707984 113.835402 
L 293.261151 111.953205 
L 293.814317 109.304686 
L 294.367484 105.733009 
L 294.920651 101.10379 
L 296.026984 88.634527 
L 298.239651 60.115385 
L 298.792818 55.020131 
L 299.345984 51.191741 
L 299.899151 48.502486 
L 300.452318 46.734069 
L 301.005485 45.668458 
L 301.558651 45.141673 
L 302.111818 45.060364 
L 302.664985 45.39637 
L 303.218151 46.175191 
L 303.771318 47.467396 
L 304.324485 49.38376 
L 304.877652 52.068299 
L 305.430818 55.679314 
L 305.983985 60.348854 
L 307.090318 72.868303 
L 309.302985 101.120736 
L 309.856152 106.092584 
L 310.409319 109.802303 
L 310.962485 112.387919 
L 311.515652 114.072923 
L 312.068819 115.076759 
L 312.621985 115.562769 
L 313.175152 115.622903 
L 313.728319 115.283897 
L 314.281486 114.519216 
L 314.834652 113.257821 
L 315.387819 111.388955 
L 315.940986 108.768645 
L 316.494152 105.23765 
L 317.047319 100.660539 
L 318.153652 88.32991 
L 320.366319 60.180065 
L 320.919486 55.176778 
L 321.472653 51.435553 
L 322.025819 48.826008 
L 322.578986 47.125128 
L 323.132153 46.108516 
L 323.68532 45.605558 
L 324.238486 45.517203 
L 324.791653 45.810767 
L 325.34482 46.507725 
L 325.897986 47.674191 
L 326.451153 49.415891 
L 327.00432 51.872739 
L 327.557486 55.203824 
L 328.110653 59.552846 
L 329.216987 71.439749 
L 331.429653 99.617047 
L 331.98282 104.811264 
L 332.535987 108.742959 
L 333.089154 111.513542 
L 333.64232 113.337046 
L 334.195487 114.444938 
L 334.748654 115.022946 
L 335.30182 115.186419 
L 335.854987 114.982134 
L 336.408154 114.400278 
L 336.96132 113.385232 
L 337.514487 111.841513 
L 338.067654 109.638066 
L 338.620821 106.619071 
L 339.173987 102.631316 
L 339.727154 97.574803 
L 340.833487 84.527353 
L 342.492988 63.271906 
L 343.046154 57.731009 
L 343.599321 53.437648 
L 344.152488 50.348502 
L 344.705654 48.275137 
L 345.258821 46.982246 
L 345.811988 46.263061 
L 346.365154 45.976264 
L 346.918321 46.051473 
L 347.471488 46.479119 
L 348.024655 47.298229 
L 348.577821 48.588627 
L 349.130988 50.466881 
L 349.684155 53.079763 
L 350.237321 56.585691 
L 350.790488 61.115369 
L 351.896822 73.255339 
L 354.109488 100.695218 
L 354.662655 105.527557 
L 355.215822 109.120785 
L 355.768988 111.606844 
L 356.322155 113.209932 
L 356.875322 114.157637 
L 357.428489 114.625781 
L 357.981655 114.719459 
L 358.534822 114.47744 
L 359.087989 113.884682 
L 359.641155 112.882834 
L 360.194322 111.375773 
L 360.747489 109.233485 
L 361.300656 106.302122 
L 361.853822 102.429805 
L 362.406989 97.514616 
L 363.513322 84.787147 
L 365.172822 63.834662 
L 365.725989 58.309261 
L 366.279156 54.005194 
L 366.832323 50.896309 
L 367.385489 48.805267 
L 367.938656 47.498652 
L 368.491823 46.763968 
L 369.044989 46.450287 
L 369.598156 46.476946 
L 370.151323 46.824781 
L 370.70449 47.52351 
L 371.257656 48.642852 
L 371.810823 50.288235 
L 372.36399 52.596361 
L 372.917156 55.722269 
L 373.470323 59.808841 
L 374.576656 71.047434 
L 376.789323 98.385178 
L 377.34249 103.584815 
L 377.895657 107.564523 
L 378.448823 110.391045 
L 379.00199 112.260145 
L 379.555157 113.404513 
L 380.108324 114.025095 
L 380.66149 114.258345 
L 381.214657 114.17223 
L 381.767824 113.776525 
L 382.32099 113.035077 
L 382.874157 111.873775 
L 383.427324 110.184313 
L 383.98049 107.828864 
L 384.533657 104.653989 
L 385.086824 100.522329 
L 386.193157 89.247237 
L 388.405824 62.253629 
L 388.958991 57.18473 
L 389.512158 53.321939 
L 390.065324 50.590205 
L 390.618491 48.792217 
L 391.171658 47.697763 
L 391.724824 47.109496 
L 392.277991 46.893867 
L 392.831158 46.984494 
L 393.384324 47.371856 
L 393.937491 48.091169 
L 394.490658 49.214455 
L 395.043825 50.846883 
L 395.596991 53.122607 
L 396.150158 56.192221 
L 396.703325 60.193523 
L 397.809658 71.168292 
L 400.022325 97.939553 
L 400.575492 103.081122 
L 401.128658 107.036774 
L 401.681825 109.859642 
L 402.234992 111.733819 
L 402.788158 112.886642 
L 403.341325 113.520396 
L 403.894492 113.777403 
L 404.447659 113.73351 
L 405.000825 113.40697 
L 405.553992 112.770685 
L 406.107159 111.760947 
L 406.660325 110.281557 
L 407.213492 108.207005 
L 407.766659 105.391728 
L 408.319826 101.693612 
L 408.872992 97.016978 
L 409.979326 84.923965 
L 411.638826 64.802444 
L 412.191992 59.392821 
L 412.745159 55.128704 
L 413.298326 52.013554 
L 413.851493 49.897638 
L 414.404659 48.562309 
L 414.957826 47.794851 
L 415.510993 47.433208 
L 416.064159 47.380377 
L 416.617326 47.599412 
L 417.170493 48.101526 
L 417.72366 48.935822 
L 418.276826 50.183752 
L 418.829993 51.956465 
L 419.38316 54.389506 
L 419.936326 57.62723 
L 420.489493 61.790098 
L 421.595826 72.942441 
L 423.808493 98.855869 
L 424.36166 103.64124 
L 424.914827 107.276299 
L 425.467993 109.840495 
L 426.02116 111.523573 
L 426.574327 112.544783 
L 427.127494 113.093243 
L 427.68066 113.299234 
L 428.233827 113.230466 
L 428.786994 112.901314 
L 429.34016 112.284452 
L 429.893327 111.318997 
L 430.446494 109.914239 
L 430.99966 107.952245 
L 431.552827 105.295491 
L 432.105994 101.806907 
L 432.659161 97.387491 
L 433.765494 85.866503 
L 435.424994 66.17156 
L 436.531328 56.306732 
L 437.084494 53.034049 
L 437.637661 50.767688 
L 438.190828 49.307361 
L 438.743994 48.441937 
L 439.297161 47.999251 
L 439.850328 47.866804 
L 440.403494 47.991225 
L 440.956661 48.367991 
L 441.509828 49.030548 
L 442.062995 50.043355 
L 442.616161 51.498903 
L 443.169328 53.515058 
L 443.722495 56.226643 
L 444.275661 59.764376 
L 444.828828 64.216942 
L 445.935162 75.706114 
L 447.594662 95.052385 
L 448.700995 104.635959 
L 449.254162 107.802971 
L 449.807328 109.993128 
L 450.360495 111.403025 
L 450.913662 112.237772 
L 451.466829 112.664136 
L 452.019995 112.791247 
L 452.573162 112.671317 
L 453.126329 112.309573 
L 453.679495 111.674818 
L 454.232662 110.706254 
L 454.785829 109.31641 
L 455.338996 107.393374 
L 455.892162 104.807875 
L 456.445329 101.431684 
L 456.998496 97.171737 
L 458.104829 86.090406 
L 460.317496 61.586295 
L 460.870663 57.195402 
L 461.423829 53.879251 
L 461.976996 51.54774 
L 462.530163 50.019954 
L 463.083329 49.093907 
L 463.636496 48.596846 
L 464.189663 48.409132 
L 464.74283 48.467061 
L 465.295996 48.754578 
L 465.849163 49.292704 
L 466.40233 50.131825 
L 466.955496 51.348034 
L 467.508663 53.041419 
L 468.06183 55.331748 
L 468.614996 58.345635 
L 469.168163 62.190026 
L 470.274497 72.447258 
L 472.487163 96.920219 
L 473.04033 101.690626 
L 473.593497 105.423134 
L 474.146664 108.142013 
L 474.69983 109.989716 
L 475.252997 111.159098 
L 475.806164 111.835228 
L 476.35933 112.16069 
L 476.912497 112.224108 
L 477.465664 112.063914 
L 478.01883 111.67818 
L 478.571997 111.033826 
L 479.125164 110.072162 
L 479.678331 108.7111 
L 480.231497 106.846983 
L 480.784664 104.360863 
L 481.337831 101.134668 
L 481.890997 97.081052 
L 482.997331 86.548098 
L 485.209998 62.801306 
L 485.763164 58.387983 
L 486.316331 54.988788 
L 486.869498 52.546469 
L 487.422664 50.906755 
L 487.975831 49.881928 
L 488.528998 49.301069 
L 489.082165 49.037507 
L 489.635331 49.015862 
L 490.188498 49.206678 
L 490.741665 49.616821 
L 491.294831 50.281214 
L 491.847998 51.258159 
L 492.401165 52.627579 
L 492.954332 54.489267 
L 493.507498 56.956667 
L 494.060665 60.141273 
L 494.613832 64.124361 
L 495.720165 74.424462 
L 497.932832 97.669207 
L 498.485999 102.037951 
L 499.039165 105.429193 
L 499.592332 107.88868 
L 500.145499 109.558226 
L 500.698665 110.616244 
L 501.251832 111.229181 
L 501.804999 111.52368 
L 502.358166 111.578182 
L 502.911332 111.426964 
L 503.464499 111.068993 
L 504.017666 110.47613 
L 504.570832 109.598147 
L 505.123999 108.364708 
L 505.677166 106.686533 
L 506.230332 104.45947 
L 506.783499 101.575896 
L 507.336666 97.947063 
L 508.442999 88.398116 
L 511.208833 60.866582 
L 511.762 57.153787 
L 512.315166 54.368201 
L 512.868333 52.408976 
L 513.4215 51.116466 
L 513.974666 50.323526 
L 514.527833 49.890617 
L 515.081 49.721779 
L 515.634166 49.765867 
L 516.187333 50.009913 
L 516.7405 50.470348 
L 517.293667 51.185226 
L 518.4 53.437097 
L 518.4 53.437097 
" style="fill:none;stroke:#1f77b4;stroke-linecap:square;stroke-width:1.5;"/>
   </g>
   <g id="line2d_15">
    <path clip-path="url(#p44120ac885)" d="M 76.419802 164.926059 
L 77.526135 178.352544 
L 78.632469 189.68059 
L 79.738802 198.493301 
L 80.291969 201.656987 
L 80.845136 203.876511 
L 81.398302 205.097078 
L 81.951469 205.291497 
L 82.504636 204.460634 
L 83.057802 202.632757 
L 83.610969 199.861858 
L 84.164136 196.225133 
L 85.270469 186.759767 
L 86.929969 168.960036 
L 89.142636 144.391592 
L 90.24897 134.220209 
L 91.355303 126.715128 
L 91.90847 124.192946 
L 92.461636 122.58455 
L 93.014803 121.938863 
L 93.56797 122.285776 
L 94.121137 123.634403 
L 94.674303 125.971379 
L 95.22747 129.259308 
L 96.333803 138.411453 
L 97.440137 150.280389 
L 100.759137 189.140709 
L 101.86547 198.356534 
L 102.418637 201.609613 
L 102.971804 203.858086 
L 103.524971 205.067729 
L 104.078137 205.236094 
L 104.631304 204.389402 
L 105.184471 202.578584 
L 105.737637 199.874983 
L 106.843971 192.151711 
L 107.950304 182.046726 
L 110.162971 158.431264 
L 111.822471 141.482372 
L 112.928805 132.245111 
L 114.035138 125.609402 
L 114.588305 123.489755 
L 115.141471 122.269107 
L 115.694638 122.00703 
L 116.247805 122.74701 
L 116.800972 124.512733 
L 117.354138 127.303864 
L 117.907305 131.091536 
L 119.013638 141.373194 
L 120.119972 154.419991 
L 122.885805 188.539821 
L 123.992139 198.209479 
L 124.545305 201.563176 
L 125.098472 203.846007 
L 125.651639 205.047679 
L 126.204806 205.1925 
L 126.757972 204.332143 
L 127.311139 202.538633 
L 127.864306 199.89821 
L 128.970639 192.463984 
L 130.076972 182.843116 
L 132.289639 160.359584 
L 133.949139 143.836752 
L 135.055473 134.446749 
L 136.161806 127.24111 
L 136.714973 124.686868 
L 137.26814 122.94814 
L 137.821306 122.10552 
L 138.374473 122.230702 
L 138.92764 123.382169 
L 139.480806 125.599434 
L 140.033973 128.895753 
L 140.58714 133.249578 
L 141.693473 144.816694 
L 143.352973 166.741933 
L 145.012474 187.859988 
L 146.118807 198.050368 
L 146.671974 201.518758 
L 147.22514 203.842091 
L 147.778307 205.038302 
L 148.331474 205.161085 
L 148.88464 204.288069 
L 149.437807 202.511202 
L 149.990974 199.929673 
L 151.097307 192.758629 
L 152.203641 183.572375 
L 154.416308 162.127035 
L 156.628974 141.175874 
L 157.735308 132.563846 
L 158.841641 126.116683 
L 159.394808 123.930793 
L 159.947975 122.559395 
L 160.501141 122.093321 
L 161.054308 122.618668 
L 161.607475 124.211348 
L 162.160641 126.928891 
L 162.713808 130.798986 
L 163.266975 135.804906 
L 164.373308 148.839782 
L 167.139142 187.081033 
L 168.245475 197.877331 
L 168.798642 201.477963 
L 169.351809 203.848667 
L 169.904975 205.041246 
L 170.458142 205.142339 
L 171.011309 204.256554 
L 171.564475 202.494934 
L 172.117642 199.967996 
L 173.223976 193.037509 
L 174.330309 184.24398 
L 176.542976 163.751815 
L 178.755643 143.349217 
L 179.861976 134.62743 
L 180.968309 127.720132 
L 181.521476 125.16308 
L 182.074643 123.3293 
L 182.62781 122.319261 
L 183.180976 122.2369 
L 183.734143 123.186118 
L 184.28731 125.264027 
L 184.840476 128.549385 
L 185.393643 133.084778 
L 186.499976 145.746757 
L 188.159477 170.470949 
L 189.26581 186.174643 
L 190.372143 197.687292 
L 190.92531 201.442806 
L 191.478477 203.8688 
L 192.031644 205.058638 
L 192.58481 205.136966 
L 193.137977 204.23713 
L 193.691144 202.488729 
L 194.24431 200.012149 
L 195.350644 193.302385 
L 196.456977 184.865816 
L 198.116477 170.328421 
L 200.882311 145.425577 
L 201.988644 136.680365 
L 203.094978 129.443482 
L 203.648144 126.589468 
L 204.201311 124.365902 
L 204.754478 122.874753 
L 205.307644 122.227874 
L 205.860811 122.546282 
L 206.413978 123.956696 
L 206.967145 126.582955 
L 207.520311 130.529061 
L 208.073478 135.850752 
L 209.179811 150.359079 
L 211.392478 185.101068 
L 211.945645 192.013658 
L 212.498812 197.474641 
L 213.051978 201.415644 
L 213.605145 203.906707 
L 214.158312 205.09346 
L 214.711478 205.146053 
L 215.264645 204.229486 
L 215.817812 202.49166 
L 216.370979 200.061347 
L 217.477312 193.554941 
L 218.583645 185.444583 
L 220.243146 171.512944 
L 223.562146 142.925962 
L 224.668479 134.779758 
L 225.774813 128.157996 
L 226.327979 125.616749 
L 226.881146 123.714766 
L 227.434313 122.563472 
L 227.987479 122.290206 
L 228.540646 123.038784 
L 229.093813 124.96612 
L 229.64698 128.230395 
L 230.200146 132.964417 
L 230.753313 139.228708 
L 231.859646 155.840253 
L 233.519146 183.805968 
L 234.072313 191.339648 
L 234.62548 197.228699 
L 235.178647 201.398554 
L 235.731813 203.968222 
L 236.28498 205.150165 
L 236.838147 205.171395 
L 237.391313 204.233508 
L 237.94448 202.50287 
L 238.497647 200.11493 
L 239.60398 193.796812 
L 240.710314 185.986094 
L 242.369814 172.611983 
L 246.241981 140.66291 
L 247.348314 133.075655 
L 248.454648 127.031379 
L 249.007814 124.789576 
L 249.560981 123.202821 
L 250.114148 122.395827 
L 250.667314 122.517237 
L 251.220481 123.742144 
L 251.773648 126.268313 
L 252.326814 130.297549 
L 252.879981 135.990684 
L 253.433148 143.388832 
L 254.539481 162.28658 
L 255.645815 182.218951 
L 256.198981 190.503126 
L 256.752148 196.929556 
L 257.305315 201.391603 
L 257.858482 204.061005 
L 258.411648 205.235541 
L 258.964815 205.216129 
L 259.517982 204.249451 
L 260.071148 202.521478 
L 260.624315 200.172213 
L 261.730648 194.029611 
L 262.836982 186.495524 
L 264.496482 173.636235 
L 268.368649 142.565432 
L 269.474982 134.918938 
L 270.581316 128.56454 
L 271.134482 126.049962 
L 271.687649 124.098699 
L 272.240816 122.826553 
L 272.793983 122.376918 
L 273.347149 122.928451 
L 273.900316 124.700178 
L 274.453483 127.945216 
L 275.006649 132.917156 
L 275.559816 139.790445 
L 276.66615 158.757452 
L 278.32565 189.435513 
L 278.878816 196.542369 
L 279.431983 201.38937 
L 279.98515 204.193934 
L 280.538316 205.359644 
L 281.091483 205.285754 
L 281.64465 204.278421 
L 282.197817 202.546559 
L 283.30415 197.440348 
L 284.410483 190.74707 
L 286.069984 178.857879 
L 291.601651 136.749751 
L 292.707984 130.177778 
L 293.814317 125.20288 
L 294.367484 123.537587 
L 294.920651 122.586003 
L 295.473818 122.518348 
L 296.026984 123.556684 
L 296.580151 125.982352 
L 297.133318 130.120891 
L 297.686484 136.276429 
L 298.239651 144.591291 
L 299.345984 166.322198 
L 300.452318 188.046081 
L 301.005485 196.010888 
L 301.558651 201.375405 
L 302.111818 204.374977 
L 302.664985 205.536369 
L 303.218151 205.389545 
L 303.771318 204.323324 
L 304.324485 202.577374 
L 305.430818 197.567782 
L 306.537152 191.078369 
L 308.196652 179.606499 
L 314.281486 135.059987 
L 315.387819 128.952588 
L 316.494152 124.481493 
L 317.047319 123.102261 
L 317.600486 122.485811 
L 318.153652 122.842061 
L 318.706819 124.456881 
L 319.259986 127.698459 
L 319.813153 132.978108 
L 320.366319 140.621817 
L 321.472653 162.451329 
L 322.578986 186.224489 
L 323.132153 195.251711 
L 323.68532 201.314777 
L 324.238486 204.606896 
L 324.791653 205.782979 
L 325.34482 205.542052 
L 325.897986 204.390396 
L 326.451153 202.614046 
L 327.557486 197.693089 
L 328.66382 191.399393 
L 330.32332 180.316665 
L 336.96132 133.526642 
L 338.067654 127.859812 
L 338.620821 125.612447 
L 339.173987 123.878927 
L 339.727154 122.791688 
L 340.280321 122.537959 
L 340.833487 123.387801 
L 341.386654 125.720341 
L 341.939821 130.017665 
L 342.492988 136.770125 
L 343.046154 146.238975 
L 345.258821 194.151151 
L 345.811988 201.145529 
L 346.365154 204.880423 
L 346.918321 206.117842 
L 347.471488 205.764222 
L 348.024655 204.491246 
L 348.577821 202.65889 
L 349.684155 197.814598 
L 350.790488 191.712994 
L 352.449988 180.99498 
L 355.768988 157.308723 
L 357.981655 142.045237 
L 359.641155 132.136734 
L 360.747489 126.889071 
L 361.300656 124.869451 
L 361.853822 123.389944 
L 362.406989 122.609458 
L 362.960156 122.767656 
L 363.513322 124.226038 
L 364.066489 127.494707 
L 364.619656 133.186232 
L 365.172822 141.811686 
L 366.279156 167.005446 
L 367.385489 192.566701 
L 367.938656 200.77038 
L 368.491823 205.164938 
L 369.044989 206.55565 
L 369.598156 206.08341 
L 370.151323 204.645137 
L 371.257656 200.470198 
L 372.36399 195.104596 
L 374.02349 185.252011 
L 376.236157 170.320795 
L 380.108324 143.726421 
L 381.767824 133.774082 
L 382.874157 128.276013 
L 383.98049 124.233025 
L 384.533657 123.011691 
L 385.086824 122.568023 
L 385.639991 123.224271 
L 386.193157 125.477323 
L 386.746324 130.005707 
L 387.299491 137.529574 
L 387.852657 148.425182 
L 389.512158 190.334759 
L 390.065324 200.050383 
L 390.618491 205.397069 
L 391.171658 207.099531 
L 391.724824 206.531485 
L 392.277991 204.881026 
L 393.384324 200.523913 
L 394.490658 195.303289 
L 396.150158 185.774168 
L 398.362825 171.312945 
L 402.788158 141.907167 
L 404.447659 132.461159 
L 405.553992 127.325934 
L 406.107159 125.275919 
L 406.660325 123.695945 
L 407.213492 122.746405 
L 407.766659 122.697277 
L 408.319826 123.998699 
L 408.872992 127.335641 
L 409.426159 133.568604 
L 409.979326 143.414538 
L 411.085659 172.351285 
L 411.638826 187.28585 
L 412.191992 198.802606 
L 412.745159 205.468008 
L 413.298326 207.729557 
L 413.851493 207.140092 
L 414.957826 202.947877 
L 416.617326 195.491265 
L 417.72366 189.547394 
L 419.936326 175.875833 
L 425.467993 140.240025 
L 427.127494 131.272857 
L 428.233827 126.478862 
L 428.786994 124.614585 
L 429.34016 123.253155 
L 429.893327 122.607611 
L 430.446494 123.059012 
L 430.99966 125.24593 
L 431.552827 130.086248 
L 432.105994 138.566934 
L 432.659161 151.145979 
L 434.318661 196.804295 
L 434.871827 205.210724 
L 435.424994 208.387176 
L 435.978161 207.931962 
L 437.084494 203.180566 
L 439.297161 192.922262 
L 440.956661 183.529455 
L 443.722495 166.121881 
L 447.594662 141.880654 
L 449.254162 132.84516 
L 450.360495 127.808873 
L 451.466829 124.037477 
L 452.019995 122.90584 
L 452.573162 122.631275 
L 453.126329 123.766766 
L 453.679495 127.205614 
L 454.232662 134.098422 
L 454.785829 145.370758 
L 456.998496 204.389118 
L 457.551662 208.955049 
L 458.104829 208.906695 
L 458.657996 206.524752 
L 459.764329 200.790163 
L 461.976996 190.375805 
L 463.636496 180.874895 
L 471.38083 134.451768 
L 472.487163 129.240414 
L 473.593497 125.052038 
L 474.146664 123.537811 
L 474.69983 122.669393 
L 475.252997 122.891769 
L 475.806164 125.005667 
L 476.35933 130.204344 
L 476.912497 139.766287 
L 477.465664 154.180637 
L 478.571997 189.562411 
L 479.125164 202.692841 
L 479.678331 209.232059 
L 480.231497 210.018642 
L 480.784664 207.562247 
L 481.890997 201.022163 
L 485.209998 184.803709 
L 487.975831 168.358574 
L 492.401165 142.007141 
L 494.060665 133.335114 
L 495.166998 128.38171 
L 496.273332 124.450706 
L 496.826498 123.116734 
L 497.379665 122.58523 
L 497.932832 123.518508 
L 498.485999 127.039083 
L 499.039165 134.615623 
L 499.592332 147.378603 
L 501.251832 199.744896 
L 501.804999 208.904665 
L 502.358166 211.143398 
L 502.911332 208.91229 
L 504.017666 201.436931 
L 505.123999 196.042301 
L 506.230332 191.190821 
L 507.889833 182.37252 
L 512.315166 156.349055 
L 515.081 140.679341 
L 516.7405 132.354826 
L 517.846833 127.643304 
L 518.4 125.87489 
L 518.4 125.87489 
" style="fill:none;stroke:#ff7f0e;stroke-linecap:square;stroke-width:1.5;"/>
   </g>
   <g id="line2d_16">
    <path clip-path="url(#p44120ac885)" d="M 76.419802 248.086059 
L 77.526135 261.494345 
L 78.632469 272.832116 
L 79.738802 281.691183 
L 80.291969 284.870014 
L 80.845136 287.086402 
L 81.398302 288.282714 
L 81.951469 288.437317 
L 82.504636 287.563812 
L 83.057802 285.70627 
L 83.610969 282.932114 
L 84.164136 279.324661 
L 85.270469 269.987994 
L 86.376803 258.503289 
L 89.695803 221.036735 
L 90.802136 211.809992 
L 91.355303 208.564061 
L 91.90847 206.363867 
L 92.461636 205.2427 
L 93.014803 205.183996 
L 93.56797 206.134166 
L 94.121137 208.017698 
L 94.674303 210.750016 
L 95.780637 218.424268 
L 96.88697 228.520703 
L 98.54647 246.827235 
L 100.759137 272.182805 
L 101.86547 281.804454 
L 102.418637 285.122638 
L 102.971804 287.305764 
L 103.524971 288.350591 
L 104.078137 288.31602 
L 104.631304 287.29503 
L 105.184471 285.3903 
L 105.737637 282.698919 
L 106.843971 275.281887 
L 107.950304 265.576463 
L 109.056638 254.011798 
L 112.375638 216.257189 
L 112.928805 211.708313 
L 113.481971 208.310046 
L 114.035138 206.14333 
L 114.588305 205.175796 
L 115.141471 205.301834 
L 115.694638 206.389203 
L 116.247805 208.311547 
L 116.800972 210.963009 
L 117.907305 218.142709 
L 119.013638 227.483317 
L 120.119972 238.708591 
L 121.779472 258.224365 
L 123.438972 277.141951 
L 123.992139 281.888767 
L 124.545305 285.377623 
L 125.098472 287.530303 
L 125.651639 288.419799 
L 126.204806 288.203218 
L 126.757972 287.052633 
L 127.311139 285.115316 
L 127.864306 282.50273 
L 128.970639 275.543417 
L 130.076972 266.543852 
L 131.183306 255.656174 
L 132.842806 236.227285 
L 134.502306 216.611186 
L 135.055473 211.647838 
L 135.60864 208.055134 
L 136.161806 205.912083 
L 136.714973 205.101008 
L 137.26814 205.408102 
L 137.821306 206.619976 
L 138.374473 208.570446 
L 138.92764 211.145195 
L 140.033973 217.898677 
L 141.140307 226.57876 
L 142.24664 237.133594 
L 143.352973 249.578228 
L 145.56564 276.718968 
L 146.118807 281.917918 
L 146.671974 285.630358 
L 147.22514 287.770532 
L 147.778307 288.503466 
L 148.331474 288.105124 
L 148.88464 286.832697 
L 149.437807 284.870124 
L 150.544141 279.286698 
L 151.650474 271.80625 
L 152.756807 262.517808 
L 153.863141 251.30244 
L 155.522641 230.888533 
L 156.628974 217.111526 
L 157.182141 211.6582 
L 157.735308 207.807843 
L 158.288474 205.661295 
L 158.841641 205.00526 
L 159.394808 205.496184 
L 159.947975 206.829595 
L 160.501141 208.804017 
L 161.607475 214.276291 
L 162.713808 221.517683 
L 163.820142 230.495985 
L 164.926475 241.416361 
L 166.032808 254.552607 
L 167.692308 276.134049 
L 168.245475 281.859523 
L 168.798642 285.867844 
L 169.351809 288.032618 
L 169.904975 288.614312 
L 170.458142 288.029156 
L 171.011309 286.633268 
L 171.564475 284.646431 
L 172.670809 279.280815 
L 173.777142 272.264627 
L 174.883476 263.581573 
L 175.989809 252.957585 
L 177.096142 239.95215 
L 179.308809 211.77314 
L 179.861976 207.585487 
L 180.415143 205.388129 
L 180.968309 204.876667 
L 181.521476 205.557758 
L 182.074643 207.018579 
L 182.62781 209.019258 
L 183.734143 214.282458 
L 184.840476 221.085577 
L 185.94681 229.487544 
L 187.053143 239.816039 
L 188.159477 252.661555 
L 190.372143 281.679817 
L 190.92531 286.068988 
L 191.478477 288.315706 
L 192.031644 288.762856 
L 192.58481 287.984397 
L 193.137977 286.455415 
L 194.24431 282.035849 
L 195.350644 276.154658 
L 196.456977 268.812113 
L 197.563311 259.796791 
L 198.669644 248.550647 
L 199.775977 234.382427 
L 201.435478 212.025325 
L 201.988644 207.412201 
L 202.541811 205.097201 
L 203.094978 204.706537 
L 203.648144 205.583281 
L 204.201311 207.18426 
L 205.307644 211.593565 
L 206.413978 217.322595 
L 207.520311 224.438865 
L 208.626645 233.175994 
L 209.732978 244.149915 
L 210.839312 258.251635 
L 212.498812 281.348088 
L 213.051978 286.207405 
L 213.605145 288.611566 
L 214.158312 288.955627 
L 214.711478 287.980492 
L 215.264645 286.303297 
L 216.370979 281.897805 
L 217.477312 276.315535 
L 218.583645 269.414943 
L 219.689979 260.945671 
L 220.796312 250.248111 
L 221.902646 236.247327 
L 223.562146 212.442923 
L 224.115312 207.315875 
L 224.668479 204.800066 
L 225.221646 204.490704 
L 225.774813 205.563355 
L 226.881146 209.408207 
L 227.987479 214.306383 
L 229.093813 220.349821 
L 230.200146 227.753314 
L 231.30648 236.940242 
L 232.412813 248.92833 
L 233.519146 264.676067 
L 234.62548 280.839074 
L 235.178647 286.254349 
L 235.731813 288.905684 
L 236.28498 289.194351 
L 236.838147 288.026279 
L 237.94448 284.063339 
L 239.050814 279.243027 
L 240.157147 273.3722 
L 241.26348 266.191056 
L 242.369814 257.274282 
L 243.476147 245.538988 
L 244.582481 229.765349 
L 245.688814 213.048109 
L 246.241981 207.325567 
L 246.795147 204.513818 
L 247.348314 204.229865 
L 247.901481 205.489945 
L 249.007814 209.580966 
L 250.114148 214.330182 
L 251.220481 220.033548 
L 252.326814 227.0015 
L 253.433148 235.655442 
L 254.539481 247.127993 
L 255.645815 262.886347 
L 256.752148 280.13371 
L 257.305315 286.180877 
L 257.858482 289.178748 
L 258.411648 289.47599 
L 258.964815 288.12882 
L 260.071148 283.899708 
L 261.177482 279.213944 
L 262.283815 273.673488 
L 263.390149 266.910448 
L 264.496482 258.511698 
L 265.602815 247.309523 
L 266.709149 231.605766 
L 267.815482 213.856939 
L 268.368649 207.469797 
L 268.921816 204.25966 
L 269.474982 203.929286 
L 270.028149 205.357079 
L 271.687649 212.003073 
L 272.793983 216.924201 
L 273.900316 222.865756 
L 275.006649 230.142153 
L 276.112983 239.458438 
L 276.66615 245.38965 
L 277.772483 261.001385 
L 278.878816 279.218774 
L 279.431983 285.959096 
L 279.98515 289.407937 
L 280.538316 289.793175 
L 281.091483 288.292934 
L 283.30415 279.173247 
L 284.410483 273.946537 
L 285.516817 267.571963 
L 286.62315 259.660217 
L 287.729484 249.013838 
L 288.835817 233.529347 
L 289.94215 214.880029 
L 290.495317 207.775713 
L 291.048484 204.061817 
L 291.601651 203.598309 
L 292.154817 205.161114 
L 295.473818 219.487123 
L 296.580151 225.67648 
L 297.686484 233.356354 
L 298.792818 243.720741 
L 299.345984 250.642373 
L 300.452318 268.605384 
L 301.005485 278.085983 
L 301.558651 285.562636 
L 302.111818 289.567762 
L 302.664985 290.134693 
L 303.218151 288.521087 
L 307.090318 271.340156 
L 308.196652 264.678641 
L 309.302985 256.148194 
L 309.856152 250.646409 
L 310.409319 243.854986 
L 311.515652 225.870599 
L 312.621985 208.268946 
L 313.175152 203.946966 
L 313.728319 203.249947 
L 314.281486 204.900744 
L 315.940986 212.263569 
L 317.600486 219.254124 
L 318.706819 225.087221 
L 319.813153 232.325719 
L 320.366319 236.771167 
L 320.919486 242.125082 
L 321.472653 248.777015 
L 322.578986 266.737164 
L 323.68532 284.966517 
L 324.238486 289.630372 
L 324.791653 290.485769 
L 325.34482 288.813439 
L 327.00432 281.237359 
L 328.66382 274.412627 
L 329.770153 268.751961 
L 330.876487 261.723582 
L 331.429653 257.409994 
L 331.98282 252.204942 
L 332.535987 245.700556 
L 333.64232 227.809242 
L 334.748654 208.973959 
L 335.30182 203.944191 
L 335.854987 202.900756 
L 336.408154 204.576949 
L 338.067654 212.377747 
L 339.727154 219.047262 
L 340.833487 224.538472 
L 341.939821 231.363251 
L 342.492988 235.547754 
L 343.046154 240.603604 
L 343.599321 246.953455 
L 344.152488 255.000364 
L 345.811988 284.146622 
L 346.365154 289.565321 
L 346.918321 290.827989 
L 347.471488 289.167864 
L 349.130988 281.132439 
L 350.790488 274.606478 
L 351.896822 269.282286 
L 353.003155 262.65503 
L 353.556322 258.596656 
L 354.109488 253.689721 
L 354.662655 247.500299 
L 355.215822 239.585141 
L 356.875322 209.914711 
L 357.428489 204.085495 
L 357.981655 202.571145 
L 358.534822 204.193038 
L 360.194322 212.471179 
L 362.406989 221.304128 
L 363.513322 227.056024 
L 364.619656 234.396144 
L 365.172822 239.154947 
L 365.725989 245.178987 
L 366.279156 252.947456 
L 367.938656 283.078958 
L 368.491823 289.338787 
L 369.044989 291.138731 
L 369.598156 289.579792 
L 371.257656 281.052998 
L 373.470323 272.41718 
L 374.576656 266.835803 
L 375.68299 259.714996 
L 376.236157 255.103065 
L 376.789323 249.248393 
L 377.34249 241.640333 
L 379.555157 204.406846 
L 380.108324 202.286256 
L 380.66149 203.75497 
L 382.32099 212.533872 
L 385.086824 223.544827 
L 386.193157 229.610758 
L 386.746324 233.309263 
L 387.299491 237.775942 
L 387.852657 243.458067 
L 388.405824 250.89306 
L 389.512158 271.324263 
L 390.065324 281.738948 
L 390.618491 288.912266 
L 391.171658 291.389918 
L 391.724824 290.041678 
L 393.384324 281.010132 
L 396.150158 270.244407 
L 397.256491 264.357036 
L 397.809658 260.772282 
L 398.362825 256.448891 
L 398.915992 250.94165 
L 399.469158 243.691174 
L 400.575492 223.330325 
L 401.128658 212.601108 
L 401.681825 204.949717 
L 402.234992 202.07763 
L 402.788158 203.272154 
L 404.447659 212.553519 
L 405.553992 216.659657 
L 406.660325 220.700947 
L 407.766659 225.782625 
L 408.872992 232.2797 
L 409.426159 236.462007 
L 409.979326 241.792711 
L 410.532492 248.848257 
L 411.638826 269.080916 
L 412.191992 280.101021 
L 412.745159 288.240844 
L 413.298326 291.545881 
L 413.851493 290.541857 
L 415.510993 281.017504 
L 416.617326 276.895255 
L 417.72366 272.992681 
L 418.829993 268.075412 
L 419.936326 261.776027 
L 420.489493 257.732366 
L 421.04266 252.579131 
L 421.595826 245.727746 
L 422.148993 236.686553 
L 423.808493 205.762955 
L 424.36166 201.985884 
L 424.914827 202.759047 
L 426.574327 212.514919 
L 427.68066 216.67195 
L 428.786994 220.440676 
L 429.893327 225.193816 
L 430.99966 231.299878 
L 431.552827 235.207463 
L 432.105994 240.182872 
L 432.659161 246.821867 
L 433.212327 255.669681 
L 434.871827 287.271258 
L 435.424994 291.560058 
L 435.978161 291.062368 
L 438.190828 278.748694 
L 440.403494 271.0919 
L 441.509828 265.892238 
L 442.616161 258.959623 
L 443.169328 254.161784 
L 443.722495 247.742259 
L 444.275661 239.10882 
L 445.935162 206.904676 
L 446.488328 202.064703 
L 447.041495 202.238053 
L 447.594662 205.368788 
L 448.700995 212.399079 
L 449.254162 214.814967 
L 451.466829 222.272894 
L 452.573162 227.304079 
L 453.679495 234.005782 
L 454.232662 238.626782 
L 454.785829 244.820728 
L 455.338996 253.219784 
L 456.998496 285.940192 
L 457.551662 291.370273 
L 458.104829 291.575133 
L 458.657996 288.522139 
L 459.764329 281.255195 
L 460.317496 278.753794 
L 463.083329 269.200102 
L 464.189663 263.653284 
L 464.74283 260.137533 
L 465.295996 255.692121 
L 465.849163 249.728741 
L 466.40233 241.582721 
L 468.06183 208.443591 
L 468.614996 202.386315 
L 469.168163 201.744508 
L 469.72133 204.680554 
L 470.827663 212.181908 
L 471.38083 214.78256 
L 472.487163 218.328533 
L 473.593497 221.90192 
L 474.69983 226.595728 
L 475.806164 232.849789 
L 476.35933 237.121257 
L 476.912497 242.850032 
L 477.465664 250.725554 
L 478.571997 273.138777 
L 479.125164 284.173571 
L 479.678331 290.892503 
L 480.231497 292.03552 
L 480.784664 289.262805 
L 481.890997 281.534136 
L 482.444164 278.819647 
L 483.550498 275.25821 
L 484.656831 271.833742 
L 485.763164 267.310136 
L 486.869498 261.273531 
L 487.422664 257.173928 
L 487.975831 251.68269 
L 488.528998 244.09355 
L 489.635331 221.911078 
L 490.188498 210.458798 
L 490.741665 203.048392 
L 491.294831 201.334917 
L 491.847998 203.889835 
L 492.954332 211.832457 
L 493.507498 214.676091 
L 494.060665 216.688237 
L 495.720165 221.557521 
L 496.826498 225.909081 
L 497.932832 231.731836 
L 498.485999 235.661972 
L 499.039165 240.913687 
L 499.592332 248.201985 
L 500.145499 258.066015 
L 501.251832 281.888031 
L 501.804999 290.013536 
L 502.358166 292.371912 
L 502.911332 290.099111 
L 504.017666 281.964082 
L 504.570832 278.975208 
L 505.123999 276.890977 
L 507.336666 270.230912 
L 508.442999 265.406514 
L 508.996166 262.375614 
L 509.549333 258.612228 
L 510.102499 253.600724 
L 510.655666 246.625159 
L 511.208833 237.070434 
L 512.315166 213.029903 
L 512.868333 204.17483 
L 513.4215 201.096289 
L 513.974666 203.016666 
L 515.081 211.329006 
L 515.634166 214.496287 
L 516.187333 216.697349 
L 518.4 223.203311 
L 518.4 223.203311 
" style="fill:none;stroke:#2ca02c;stroke-linecap:square;stroke-width:1.5;"/>
   </g>
   <g id="line2d_17">
    <defs>
     <path d="M 0 3.5 
C 0.928211 3.5 1.81853 3.131218 2.474874 2.474874 
C 3.131218 1.81853 3.5 0.928211 3.5 0 
C 3.5 -0.928211 3.131218 -1.81853 2.474874 -2.474874 
C 1.81853 -3.131218 0.928211 -3.5 0 -3.5 
C -0.928211 -3.5 -1.81853 -3.131218 -2.474874 -2.474874 
C -3.131218 -1.81853 -3.5 -0.928211 -3.5 0 
C -3.5 0.928211 -3.131218 1.81853 -2.474874 2.474874 
C -1.81853 3.131218 -0.928211 3.5 0 3.5 
z
" id="m4ee17ab5f9" style="stroke:#000000;"/>
    </defs>
    <g clip-path="url(#p44120ac885)">
     <use style="stroke:#000000;" x="258.411648" xlink:href="#m4ee17ab5f9" y="44.091211"/>
    </g>
   </g>
   <g id="line2d_18">
    <defs>
     <path d="M 0 -5 
L -1.12257 -1.545085 
L -4.755283 -1.545085 
L -1.816356 0.59017 
L -2.938926 4.045085 
L -0 1.90983 
L 2.938926 4.045085 
L 1.816356 0.59017 
L 4.755283 -1.545085 
L 1.12257 -1.545085 
z
" id="m793ba392c3" style="stroke:#ff0000;stroke-linejoin:bevel;"/>
    </defs>
    <g clip-path="url(#p44120ac885)">
     <use style="fill:#ff0000;stroke:#ff0000;stroke-linejoin:bevel;" x="435.424994" xlink:href="#m793ba392c3" y="66.17156"/>
    </g>
   </g>
   <g id="patch_3">
    <path d="M 72 288.36 
L 72 38.88 
" style="fill:none;stroke:#000000;stroke-linecap:square;stroke-linejoin:miter;stroke-width:0.8;"/>
   </g>
   <g id="patch_4">
    <path d="M 518.4 288.36 
L 518.4 38.88 
" style="fill:none;stroke:#000000;stroke-linecap:square;stroke-linejoin:miter;stroke-width:0.8;"/>
   </g>
   <g id="patch_5">
    <path d="M 72 288.36 
L 518.4 288.36 
" style="fill:none;stroke:#000000;stroke-linecap:square;stroke-linejoin:miter;stroke-width:0.8;"/>
   </g>
   <g id="patch_6">
    <path d="M 72 38.88 
L 518.4 38.88 
" style="fill:none;stroke:#000000;stroke-linecap:square;stroke-linejoin:miter;stroke-width:0.8;"/>
   </g>
   <g id="text_16">
    <!-- 40.0 ms -->
    <g transform="translate(270.96375 32.88)scale(0.12 -0.12)">
     <use xlink:href="#DejaVuSans-34"/>
     <use x="63.623047" xlink:href="#DejaVuSans-30"/>
     <use x="127.246094" xlink:href="#DejaVuSans-2e"/>
     <use x="159.033203" xlink:href="#DejaVuSans-30"/>
     <use x="222.65625" xlink:href="#DejaVuSans-20"/>
     <use x="254.443359" xlink:href="#DejaVuSans-6d"/>
     <use x="351.855469" xlink:href="#DejaVuSans-73"/>
    </g>
   </g>
   <g id="legend_1">
    <g id="patch_7">
     <path d="M 367.63125 283.36 
L 511.4 283.36 
Q 513.4 283.36 513.4 281.36 
L 513.4 238.325625 
Q 513.4 236.325625 511.4 236.325625 
L 367.63125 236.325625 
Q 365.63125 236.325625 365.63125 238.325625 
L 365.63125 281.36 
Q 365.63125 283.36 367.63125 283.36 
z
" style="fill:#ffffff;opacity:0.8;stroke:#cccccc;stroke-linejoin:miter;"/>
    </g>
    <g id="line2d_19">
     <path d="M 369.63125 244.424062 
L 389.63125 244.424062 
" style="fill:none;stroke:#1f77b4;stroke-linecap:square;stroke-width:1.5;"/>
    </g>
    <g id="line2d_20"/>
    <g id="text_17">
     <!-- Slow dynamics -->
     <g transform="translate(397.63125 247.924062)scale(0.1 -0.1)">
      <defs>
       <path d="M 3425 4513 
L 3425 3897 
Q 3066 4069 2747 4153 
Q 2428 4238 2131 4238 
Q 1616 4238 1336 4038 
Q 1056 3838 1056 3469 
Q 1056 3159 1242 3001 
Q 1428 2844 1947 2747 
L 2328 2669 
Q 3034 2534 3370 2195 
Q 3706 1856 3706 1288 
Q 3706 609 3251 259 
Q 2797 -91 1919 -91 
Q 1588 -91 1214 -16 
Q 841 59 441 206 
L 441 856 
Q 825 641 1194 531 
Q 1563 422 1919 422 
Q 2459 422 2753 634 
Q 3047 847 3047 1241 
Q 3047 1584 2836 1778 
Q 2625 1972 2144 2069 
L 1759 2144 
Q 1053 2284 737 2584 
Q 422 2884 422 3419 
Q 422 4038 858 4394 
Q 1294 4750 2059 4750 
Q 2388 4750 2728 4690 
Q 3069 4631 3425 4513 
z
" id="DejaVuSans-53" transform="scale(0.015625)"/>
       <path d="M 269 3500 
L 844 3500 
L 1563 769 
L 2278 3500 
L 2956 3500 
L 3675 769 
L 4391 3500 
L 4966 3500 
L 4050 0 
L 3372 0 
L 2619 2869 
L 1863 0 
L 1184 0 
L 269 3500 
z
" id="DejaVuSans-77" transform="scale(0.015625)"/>
       <path d="M 2906 2969 
L 2906 4863 
L 3481 4863 
L 3481 0 
L 2906 0 
L 2906 525 
Q 2725 213 2448 61 
Q 2172 -91 1784 -91 
Q 1150 -91 751 415 
Q 353 922 353 1747 
Q 353 2572 751 3078 
Q 1150 3584 1784 3584 
Q 2172 3584 2448 3432 
Q 2725 3281 2906 2969 
z
M 947 1747 
Q 947 1113 1208 752 
Q 1469 391 1925 391 
Q 2381 391 2643 752 
Q 2906 1113 2906 1747 
Q 2906 2381 2643 2742 
Q 2381 3103 1925 3103 
Q 1469 3103 1208 2742 
Q 947 2381 947 1747 
z
" id="DejaVuSans-64" transform="scale(0.015625)"/>
      </defs>
      <use xlink:href="#DejaVuSans-53"/>
      <use x="63.476562" xlink:href="#DejaVuSans-6c"/>
      <use x="91.259766" xlink:href="#DejaVuSans-6f"/>
      <use x="152.441406" xlink:href="#DejaVuSans-77"/>
      <use x="234.228516" xlink:href="#DejaVuSans-20"/>
      <use x="266.015625" xlink:href="#DejaVuSans-64"/>
      <use x="329.492188" xlink:href="#DejaVuSans-79"/>
      <use x="388.671875" xlink:href="#DejaVuSans-6e"/>
      <use x="452.050781" xlink:href="#DejaVuSans-61"/>
      <use x="513.330078" xlink:href="#DejaVuSans-6d"/>
      <use x="610.742188" xlink:href="#DejaVuSans-69"/>
      <use x="638.525391" xlink:href="#DejaVuSans-63"/>
      <use x="693.505859" xlink:href="#DejaVuSans-73"/>
     </g>
    </g>
    <g id="line2d_21">
     <path d="M 369.63125 259.102188 
L 389.63125 259.102188 
" style="fill:none;stroke:#ff7f0e;stroke-linecap:square;stroke-width:1.5;"/>
    </g>
    <g id="line2d_22"/>
    <g id="text_18">
     <!-- 1st order nonlinearity -->
     <g transform="translate(397.63125 262.602188)scale(0.1 -0.1)">
      <use xlink:href="#DejaVuSans-31"/>
      <use x="63.623047" xlink:href="#DejaVuSans-73"/>
      <use x="115.722656" xlink:href="#DejaVuSans-74"/>
      <use x="154.931641" xlink:href="#DejaVuSans-20"/>
      <use x="186.71875" xlink:href="#DejaVuSans-6f"/>
      <use x="247.900391" xlink:href="#DejaVuSans-72"/>
      <use x="287.263672" xlink:href="#DejaVuSans-64"/>
      <use x="350.740234" xlink:href="#DejaVuSans-65"/>
      <use x="412.263672" xlink:href="#DejaVuSans-72"/>
      <use x="453.376953" xlink:href="#DejaVuSans-20"/>
      <use x="485.164062" xlink:href="#DejaVuSans-6e"/>
      <use x="548.542969" xlink:href="#DejaVuSans-6f"/>
      <use x="609.724609" xlink:href="#DejaVuSans-6e"/>
      <use x="673.103516" xlink:href="#DejaVuSans-6c"/>
      <use x="700.886719" xlink:href="#DejaVuSans-69"/>
      <use x="728.669922" xlink:href="#DejaVuSans-6e"/>
      <use x="792.048828" xlink:href="#DejaVuSans-65"/>
      <use x="853.572266" xlink:href="#DejaVuSans-61"/>
      <use x="914.851562" xlink:href="#DejaVuSans-72"/>
      <use x="955.964844" xlink:href="#DejaVuSans-69"/>
      <use x="983.748047" xlink:href="#DejaVuSans-74"/>
      <use x="1022.957031" xlink:href="#DejaVuSans-79"/>
     </g>
    </g>
    <g id="line2d_23">
     <path d="M 369.63125 273.780313 
L 389.63125 273.780313 
" style="fill:none;stroke:#2ca02c;stroke-linecap:square;stroke-width:1.5;"/>
    </g>
    <g id="line2d_24"/>
    <g id="text_19">
     <!-- 2nd order nonlinearity -->
     <g transform="translate(397.63125 277.280313)scale(0.1 -0.1)">
      <use xlink:href="#DejaVuSans-32"/>
      <use x="63.623047" xlink:href="#DejaVuSans-6e"/>
      <use x="127.001953" xlink:href="#DejaVuSans-64"/>
      <use x="190.478516" xlink:href="#DejaVuSans-20"/>
      <use x="222.265625" xlink:href="#DejaVuSans-6f"/>
      <use x="283.447266" xlink:href="#DejaVuSans-72"/>
      <use x="322.810547" xlink:href="#DejaVuSans-64"/>
      <use x="386.287109" xlink:href="#DejaVuSans-65"/>
      <use x="447.810547" xlink:href="#DejaVuSans-72"/>
      <use x="488.923828" xlink:href="#DejaVuSans-20"/>
      <use x="520.710938" xlink:href="#DejaVuSans-6e"/>
      <use x="584.089844" xlink:href="#DejaVuSans-6f"/>
      <use x="645.271484" xlink:href="#DejaVuSans-6e"/>
      <use x="708.650391" xlink:href="#DejaVuSans-6c"/>
      <use x="736.433594" xlink:href="#DejaVuSans-69"/>
      <use x="764.216797" xlink:href="#DejaVuSans-6e"/>
      <use x="827.595703" xlink:href="#DejaVuSans-65"/>
      <use x="889.119141" xlink:href="#DejaVuSans-61"/>
      <use x="950.398438" xlink:href="#DejaVuSans-72"/>
      <use x="991.511719" xlink:href="#DejaVuSans-69"/>
      <use x="1019.294922" xlink:href="#DejaVuSans-74"/>
      <use x="1058.503906" xlink:href="#DejaVuSans-79"/>
     </g>
    </g>
   </g>
  </g>
 </g>
 <defs>
  <clipPath id="p44120ac885">
   <rect height="249.48" width="446.4" x="72" y="38.88"/>
  </clipPath>
 </defs>
</svg>
